<svg version="1.2" xmlns="http://www.w3.org/2000/svg" viewBox="0 0 2475 1650" width="2475" height="1650">
	<title>molto buona</title>
	<defs>
		<linearGradient id="g1" x2="1" gradientUnits="userSpaceOnUse" gradientTransform="matrix(2168.91,0,0,1429.324,166.092,792.667)">
			<stop offset="0" stop-color="#dae3fe"/>
			<stop offset="1" stop-color="#e9effd"/>
		</linearGradient>
		<clipPath clipPathUnits="userSpaceOnUse" id="cp1">
			<path d="m1263.57 552.3h1095.43v966.55h-1095.43z"/>
		</clipPath>
		<clipPath clipPathUnits="userSpaceOnUse" id="cp2">
			<path d="m303.93 552.3h1095.43v966.55h-1095.43z"/>
		</clipPath>
		<linearGradient id="g2" x2="1" gradientUnits="userSpaceOnUse" gradientTransform="matrix(224.041,-260.048,260.048,224.041,479.302,612.185)">
			<stop offset="0" stop-color="#e1473d"/>
			<stop offset="1" stop-color="#e9605a"/>
		</linearGradient>
		<linearGradient id="g3" x2="1" gradientUnits="userSpaceOnUse" gradientTransform="matrix(-662.497,1000.844,-1000.844,-662.497,829.941,162.468)">
			<stop offset="0" stop-color="#fe7062"/>
			<stop offset="1" stop-color="#ff928e"/>
		</linearGradient>
		<linearGradient id="g4" x2="1" gradientUnits="userSpaceOnUse" gradientTransform="matrix(-352.766,592.236,-479.042,-285.342,810.178,191.145)">
			<stop offset="0" stop-color="#fe7062"/>
			<stop offset="1" stop-color="#ff928e"/>
		</linearGradient>
		<linearGradient id="g5" x2="1" gradientUnits="userSpaceOnUse" gradientTransform="matrix(175.018,-203.145,203.145,175.018,284.287,784.476)">
			<stop offset="0" stop-color="#e1473d"/>
			<stop offset="1" stop-color="#e9605a"/>
		</linearGradient>
		<linearGradient id="g6" x2="1" gradientUnits="userSpaceOnUse" gradientTransform="matrix(-517.532,781.843,-781.843,-517.532,558.201,433.164)">
			<stop offset="0" stop-color="#fe7062"/>
			<stop offset="1" stop-color="#ff928e"/>
		</linearGradient>
		<linearGradient id="g7" x2="1" gradientUnits="userSpaceOnUse" gradientTransform="matrix(-275.575,462.645,-374.217,-222.903,542.762,455.567)">
			<stop offset="0" stop-color="#fe7062"/>
			<stop offset="1" stop-color="#ff928e"/>
		</linearGradient>
		<linearGradient id="g8" x2="1" gradientUnits="userSpaceOnUse" gradientTransform="matrix(148.236,-172.06,172.06,148.236,585.246,899.384)">
			<stop offset="0" stop-color="#e1473d"/>
			<stop offset="1" stop-color="#e9605a"/>
		</linearGradient>
		<linearGradient id="g9" x2="1" gradientUnits="userSpaceOnUse" gradientTransform="matrix(-438.339,662.204,-662.204,-438.339,817.245,601.831)">
			<stop offset="0" stop-color="#fe7062"/>
			<stop offset="1" stop-color="#ff928e"/>
		</linearGradient>
		<linearGradient id="g10" x2="1" gradientUnits="userSpaceOnUse" gradientTransform="matrix(-233.406,391.85,-316.956,-188.795,804.169,620.805)">
			<stop offset="0" stop-color="#fe7062"/>
			<stop offset="1" stop-color="#ff928e"/>
		</linearGradient>
		<linearGradient id="g11" x2="1" gradientUnits="userSpaceOnUse" gradientTransform="matrix(-596,796,-756.528,-566.446,2316.904,-273.599)">
			<stop offset="0" stop-color="#09005d"/>
			<stop offset="1" stop-color="#1a0f91"/>
		</linearGradient>
		<linearGradient id="g12" x2="1" gradientUnits="userSpaceOnUse" gradientTransform="matrix(-1084.363,1424.281,-1361.109,-1036.268,1856.615,322.622)">
			<stop offset="0" stop-color="#4042e2"/>
			<stop offset="1" stop-color="#4f52ff"/>
		</linearGradient>
		<linearGradient id="g13" x2="1" gradientUnits="userSpaceOnUse" gradientTransform="matrix(372.498,0,0,61.074,1212.87,845.607)">
			<stop offset="0" stop-color="#09005d"/>
			<stop offset="1" stop-color="#1a0f91"/>
		</linearGradient>
		<linearGradient id="g14" x2="1" gradientUnits="userSpaceOnUse" gradientTransform="matrix(655.467,-431.978,364.33,552.822,1274.039,1064.838)">
			<stop offset="0" stop-color="#fe7062"/>
			<stop offset="1" stop-color="#ff928e"/>
		</linearGradient>
		<linearGradient id="g15" x2="1" gradientUnits="userSpaceOnUse" gradientTransform="matrix(-110.056,120.813,-117.607,-107.135,1802.759,974.74)">
			<stop offset="0" stop-color="#e1473d"/>
			<stop offset="1" stop-color="#e9605a"/>
		</linearGradient>
		<linearGradient id="g16" x2="1" gradientUnits="userSpaceOnUse" gradientTransform="matrix(-60,55,-141.478,-154.34,1843.621,859.314)">
			<stop offset="0" stop-color="#ff928e"/>
			<stop offset="1" stop-color="#feb3b1"/>
		</linearGradient>
		<linearGradient id="g17" x2="1" gradientUnits="userSpaceOnUse" gradientTransform="matrix(4,92,-78.951,3.433,1107.725,629.36)">
			<stop offset="0" stop-color="#ff928e"/>
			<stop offset="1" stop-color="#feb3b1"/>
		</linearGradient>
		<linearGradient id="g18" x2="1" gradientUnits="userSpaceOnUse" gradientTransform="matrix(-66.536,-53.696,29.522,-36.581,1530.184,899.04)">
			<stop offset="0" stop-color="#e1473d"/>
			<stop offset="1" stop-color="#e9605a"/>
		</linearGradient>
		<linearGradient id="g19" x2="1" gradientUnits="userSpaceOnUse" gradientTransform="matrix(35.019,-35.019,36.583,36.583,1388.692,938.515)">
			<stop offset="0" stop-color="#e1473d"/>
			<stop offset="1" stop-color="#e9605a"/>
		</linearGradient>
		<linearGradient id="g20" x2="1" gradientUnits="userSpaceOnUse" gradientTransform="matrix(147.564,0,0,147.564,1155.818,1026.767)">
			<stop offset="0" stop-color="#09005d"/>
			<stop offset="1" stop-color="#1a0f91"/>
		</linearGradient>
		<linearGradient id="g21" x2="1" gradientUnits="userSpaceOnUse" gradientTransform="matrix(-163.543,267.959,-267.959,-163.543,1288.648,930.019)">
			<stop offset="0" stop-color="#e1473d"/>
			<stop offset="1" stop-color="#e9605a"/>
		</linearGradient>
		<linearGradient id="g22" x2="1" gradientUnits="userSpaceOnUse" gradientTransform="matrix(147.564,0,0,147.564,1590.979,1026.767)">
			<stop offset="0" stop-color="#09005d"/>
			<stop offset="1" stop-color="#1a0f91"/>
		</linearGradient>
		<linearGradient id="g23" x2="1" gradientUnits="userSpaceOnUse" gradientTransform="matrix(-163.543,279.282,-279.282,-163.543,1728.882,917.268)">
			<stop offset="0" stop-color="#e1473d"/>
			<stop offset="1" stop-color="#e9605a"/>
		</linearGradient>
		<linearGradient id="g24" x2="1" gradientUnits="userSpaceOnUse" gradientTransform="matrix(81.002,0,0,75.754,1637.836,1010.567)">
			<stop offset="0" stop-color="#ff928e"/>
			<stop offset="1" stop-color="#feb3b1"/>
		</linearGradient>
		<linearGradient id="g25" x2="1" gradientUnits="userSpaceOnUse" gradientTransform="matrix(-48,84,-172.596,-98.626,1366.072,797.755)">
			<stop offset="0" stop-color="#ff928e"/>
			<stop offset="1" stop-color="#feb3b1"/>
		</linearGradient>
		<linearGradient id="g26" x2="1" gradientUnits="userSpaceOnUse" gradientTransform="matrix(-70,76,-232.071,-213.75,1414.22,807.282)">
			<stop offset="0" stop-color="#ff928e"/>
			<stop offset="1" stop-color="#feb3b1"/>
		</linearGradient>
		<linearGradient id="g27" x2="1" gradientUnits="userSpaceOnUse" gradientTransform="matrix(30,110,-177.391,48.379,1572.429,808.61)">
			<stop offset="0" stop-color="#ff928e"/>
			<stop offset="1" stop-color="#feb3b1"/>
		</linearGradient>
		<linearGradient id="g28" x2="1" gradientUnits="userSpaceOnUse" gradientTransform="matrix(-304,760,-1304.708,-521.883,1595.688,795.076)">
			<stop offset="0" stop-color="#fe7062"/>
			<stop offset="1" stop-color="#ff928e"/>
		</linearGradient>
		<linearGradient id="g29" x2="1" gradientUnits="userSpaceOnUse" gradientTransform="matrix(571.365,0,0,63.486,1199.738,449.444)">
			<stop offset="0" stop-color="#dae3fe"/>
			<stop offset="1" stop-color="#e9effd"/>
		</linearGradient>
		<linearGradient id="g30" x2="1" gradientUnits="userSpaceOnUse" gradientTransform="matrix(357.524,0,0,357.524,1523.13,999.969)">
			<stop offset="0" stop-color="#4042e2"/>
			<stop offset="1" stop-color="#4f52ff"/>
		</linearGradient>
		<clipPath clipPathUnits="userSpaceOnUse" id="cp3">
			<path d="m1701.89 1177.33c-98.08 0-177.36-79.28-177.36-177.36 0-98.08 79.28-177.36 177.36-177.36 98.08 0 177.36 79.28 177.36 177.36 0 98.08-79.28 177.36-177.36 177.36z"/>
		</clipPath>
		<linearGradient id="g31" x2="1" gradientUnits="userSpaceOnUse" gradientTransform="matrix(423.361,0,0,69.413,1180.766,822.845)">
			<stop offset="0" stop-color="#09005d"/>
			<stop offset="1" stop-color="#1a0f91"/>
		</linearGradient>
		<linearGradient id="g32" x2="1" gradientUnits="userSpaceOnUse" gradientTransform="matrix(-254,264,-301.741,-290.31,1638.663,744.994)">
			<stop offset="0" stop-color="#fe7062"/>
			<stop offset="1" stop-color="#ff928e"/>
		</linearGradient>
		<linearGradient id="g33" x2="1" gradientUnits="userSpaceOnUse" gradientTransform="matrix(-125.083,137.31,-133.665,-121.763,1851.202,969.611)">
			<stop offset="0" stop-color="#e1473d"/>
			<stop offset="1" stop-color="#e9605a"/>
		</linearGradient>
		<linearGradient id="g34" x2="1" gradientUnits="userSpaceOnUse" gradientTransform="matrix(-77,117,-223.647,-147.186,1912.545,753.726)">
			<stop offset="0" stop-color="#ff928e"/>
			<stop offset="1" stop-color="#feb3b1"/>
		</linearGradient>
		<linearGradient id="g35" x2="1" gradientUnits="userSpaceOnUse" gradientTransform="matrix(167.714,0,0,167.714,1115.923,1028.742)">
			<stop offset="0" stop-color="#09005d"/>
			<stop offset="1" stop-color="#1a0f91"/>
		</linearGradient>
		<linearGradient id="g36" x2="1" gradientUnits="userSpaceOnUse" gradientTransform="matrix(-185.874,304.548,-304.548,-185.874,1266.891,918.783)">
			<stop offset="0" stop-color="#8d55d1"/>
			<stop offset=".996" stop-color="#1c2873"/>
		</linearGradient>
		<linearGradient id="g37" x2="1" gradientUnits="userSpaceOnUse" gradientTransform="matrix(167.714,0,0,167.714,1610.504,1028.742)">
			<stop offset="0" stop-color="#09005d"/>
			<stop offset="1" stop-color="#1a0f91"/>
		</linearGradient>
		<linearGradient id="g38" x2="1" gradientUnits="userSpaceOnUse" gradientTransform="matrix(-185.875,317.417,-317.417,-185.875,1767.237,904.291)">
			<stop offset="0" stop-color="#e1473d"/>
			<stop offset="1" stop-color="#e9605a"/>
		</linearGradient>
		<linearGradient id="g39" x2="1" gradientUnits="userSpaceOnUse" gradientTransform="matrix(92.063,0,0,86.099,1663.76,1010.329)">
			<stop offset="0" stop-color="#ff928e"/>
			<stop offset="1" stop-color="#feb3b1"/>
		</linearGradient>
		<linearGradient id="g40" x2="1" gradientUnits="userSpaceOnUse" gradientTransform="matrix(98.581,0,0,98.679,1590.698,966.322)">
			<stop offset="0" stop-color="#ff928e"/>
			<stop offset="1" stop-color="#feb3b1"/>
		</linearGradient>
		<linearGradient id="g41" x2="1" gradientUnits="userSpaceOnUse" gradientTransform="matrix(10,-187.333,-1651.202,-88.143,2097.727,1567.751)">
			<stop offset="0" stop-color="#4042e2"/>
			<stop offset="1" stop-color="#4f52ff"/>
		</linearGradient>
		<linearGradient id="g42" x2="1" gradientUnits="userSpaceOnUse" gradientTransform="matrix(-195.324,-135.121,-128.161,185.262,4204.653,2995.112)">
			<stop offset="0" stop-color="#09005d"/>
			<stop offset="1" stop-color="#1a0f91"/>
		</linearGradient>
		<linearGradient id="g43" x2="1" gradientUnits="userSpaceOnUse" gradientTransform="matrix(-22.226,0,0,27.012,2130.711,1516.114)">
			<stop offset="0" stop-color="#ff928e"/>
			<stop offset="1" stop-color="#feb3b1"/>
		</linearGradient>
		<linearGradient id="g44" x2="1" gradientUnits="userSpaceOnUse" gradientTransform="matrix(10,-187.334,-467.319,-24.946,2278.71,1577.412)">
			<stop offset="0" stop-color="#4042e2"/>
			<stop offset="1" stop-color="#4f52ff"/>
		</linearGradient>
		<linearGradient id="g45" x2="1" gradientUnits="userSpaceOnUse" gradientTransform="matrix(-44.383,0,0,51.441,2295.078,1528.185)">
			<stop offset="0" stop-color="#09005d"/>
			<stop offset="1" stop-color="#1a0f91"/>
		</linearGradient>
		<linearGradient id="g46" x2="1" gradientUnits="userSpaceOnUse" gradientTransform="matrix(-26.562,0,0,31.193,2272.009,1497.586)">
			<stop offset="0" stop-color="#ff928e"/>
			<stop offset="1" stop-color="#feb3b1"/>
		</linearGradient>
		<linearGradient id="g47" x2="1" gradientUnits="userSpaceOnUse" gradientTransform="matrix(172,-428.668,395.933,158.866,2084.53,1555.573)">
			<stop offset="0" stop-color="#4042e2"/>
			<stop offset="1" stop-color="#4f52ff"/>
		</linearGradient>
		<linearGradient id="g48" x2="1" gradientUnits="userSpaceOnUse" gradientTransform="matrix(188.99,332.982,260.864,-148.058,2106.629,1094.55)">
			<stop offset="0" stop-color="#fe7062"/>
			<stop offset="1" stop-color="#ff928e"/>
		</linearGradient>
		<linearGradient id="g49" x2="1" gradientUnits="userSpaceOnUse" gradientTransform="matrix(10,52.667,34.866,-6.62,2167.947,1050.439)">
			<stop offset="0" stop-color="#ff928e"/>
			<stop offset="1" stop-color="#feb3b1"/>
		</linearGradient>
		<linearGradient id="g50" x2="1" gradientUnits="userSpaceOnUse" gradientTransform="matrix(188.991,332.984,124.209,-70.497,2175.756,1055.316)">
			<stop offset="0" stop-color="#fe7062"/>
			<stop offset="1" stop-color="#ff928e"/>
		</linearGradient>
		<linearGradient id="g51" x2="1" gradientUnits="userSpaceOnUse" gradientTransform="matrix(188.99,332.984,253.415,-143.83,2021.394,1142.927)">
			<stop offset="0" stop-color="#fe7062"/>
			<stop offset="1" stop-color="#ff928e"/>
		</linearGradient>
		<linearGradient id="g52" x2="1" gradientUnits="userSpaceOnUse" gradientTransform="matrix(-74.467,0,0,47.648,1973.059,1118.33)">
			<stop offset="0" stop-color="#ff928e"/>
			<stop offset="1" stop-color="#feb3b1"/>
		</linearGradient>
		<linearGradient id="g53" x2="1" gradientUnits="userSpaceOnUse" gradientTransform="matrix(.813,139.062,104.027,-0.608,2045.336,901.139)">
			<stop offset="0" stop-color="#ff928e"/>
			<stop offset="1" stop-color="#feb3b1"/>
		</linearGradient>
		<linearGradient id="g54" x2="1" gradientUnits="userSpaceOnUse" gradientTransform="matrix(-389.95,0,0,187.071,2252.423,1172.88)">
			<stop offset="0" stop-color="#09005d"/>
			<stop offset="1" stop-color="#1a0f91"/>
		</linearGradient>
		<linearGradient id="g55" x2="1" gradientUnits="userSpaceOnUse" gradientTransform="matrix(-824.105,-302.35,-298.197,812.785,4722.435,2107.027)">
			<stop offset="0" stop-color="#09005d"/>
			<stop offset="1" stop-color="#1a0f91"/>
		</linearGradient>
		<linearGradient id="g56" x2="1" gradientUnits="userSpaceOnUse" gradientTransform="matrix(10,52.667,145.799,-27.683,2123.692,1058.842)">
			<stop offset="0" stop-color="#ff928e"/>
			<stop offset="1" stop-color="#feb3b1"/>
		</linearGradient>
		<linearGradient id="g57" x2="1" gradientUnits="userSpaceOnUse" gradientTransform="matrix(-26.667,0,0,26.547,1906.504,1109.585)">
			<stop offset="0" stop-color="#ff928e"/>
			<stop offset="1" stop-color="#feb3b1"/>
		</linearGradient>
		<linearGradient id="g58" x2="1" gradientUnits="userSpaceOnUse" gradientTransform="matrix(28.7,87.136,-71.777,23.641,1992.051,837.451)">
			<stop offset="0" stop-color="#ff928e"/>
			<stop offset="1" stop-color="#feb3b1"/>
		</linearGradient>
		<linearGradient id="g59" x2="1" gradientUnits="userSpaceOnUse" gradientTransform="matrix(174.58,81.984,-45.643,97.195,1962.384,869.505)">
			<stop offset="0" stop-color="#09005d"/>
			<stop offset="1" stop-color="#1a0f91"/>
		</linearGradient>
		<linearGradient id="g60" x2="1" gradientUnits="userSpaceOnUse" gradientTransform="matrix(28.7,87.136,-52.775,17.383,2013.783,830.294)">
			<stop offset="0" stop-color="#ff928e"/>
			<stop offset="1" stop-color="#feb3b1"/>
		</linearGradient>
		<linearGradient id="g61" x2="1" gradientUnits="userSpaceOnUse" gradientTransform="matrix(-57,209,-625.487,-170.587,353.601,2752.334)">
			<stop offset="0" stop-color="#4042e2"/>
			<stop offset="1" stop-color="#4f52ff"/>
		</linearGradient>
		<linearGradient id="g62" x2="1" gradientUnits="userSpaceOnUse" gradientTransform="matrix(76.641,0,0,31.277,638.959,1546.73)">
			<stop offset="0" stop-color="#09005d"/>
			<stop offset="1" stop-color="#1a0f91"/>
		</linearGradient>
		<linearGradient id="g63" x2="1" gradientUnits="userSpaceOnUse" gradientTransform="matrix(22.215,0,0,26.997,646.244,1525.151)">
			<stop offset="0" stop-color="#ff928e"/>
			<stop offset="1" stop-color="#feb3b1"/>
		</linearGradient>
		<linearGradient id="g64" x2="1" gradientUnits="userSpaceOnUse" gradientTransform="matrix(-57,209,-678.044,-184.921,183.857,2706.044)">
			<stop offset="0" stop-color="#4042e2"/>
			<stop offset="1" stop-color="#4f52ff"/>
		</linearGradient>
		<linearGradient id="g65" x2="1" gradientUnits="userSpaceOnUse" gradientTransform="matrix(44.36,0,0,51.414,481.962,1537.216)">
			<stop offset="0" stop-color="#09005d"/>
			<stop offset="1" stop-color="#1a0f91"/>
		</linearGradient>
		<linearGradient id="g66" x2="1" gradientUnits="userSpaceOnUse" gradientTransform="matrix(26.549,0,0,31.175,505.019,1506.632)">
			<stop offset="0" stop-color="#ff928e"/>
			<stop offset="1" stop-color="#feb3b1"/>
		</linearGradient>
		<linearGradient id="g67" x2="1" gradientUnits="userSpaceOnUse" gradientTransform="matrix(-364.001,265,-233.921,-321.311,705.108,1311.488)">
			<stop offset="0" stop-color="#4042e2"/>
			<stop offset="1" stop-color="#4f52ff"/>
		</linearGradient>
		<linearGradient id="g68" x2="1" gradientUnits="userSpaceOnUse" gradientTransform="matrix(-608.612,529.338,-526.156,-604.953,838.886,952.434)">
			<stop offset="0" stop-color="#fe7062"/>
			<stop offset="1" stop-color="#ff928e"/>
		</linearGradient>
		<linearGradient id="g69" x2="1" gradientUnits="userSpaceOnUse" gradientTransform="matrix(5,70,-89.381,6.384,656.63,1139.741)">
			<stop offset="0" stop-color="#4042e2"/>
			<stop offset="1" stop-color="#4f52ff"/>
		</linearGradient>
		<linearGradient id="g70" x2="1" gradientUnits="userSpaceOnUse" gradientTransform="matrix(-94.508,83.689,-120.986,-136.627,626.921,1119.963)">
			<stop offset="0" stop-color="#ff928e"/>
			<stop offset="1" stop-color="#feb3b1"/>
		</linearGradient>
		<linearGradient id="g71" x2="1" gradientUnits="userSpaceOnUse" gradientTransform="matrix(-605.868,526.952,-329.062,-378.343,788.147,896.338)">
			<stop offset="0" stop-color="#fe7062"/>
			<stop offset="1" stop-color="#ff928e"/>
		</linearGradient>
		<linearGradient id="g72" x2="1" gradientUnits="userSpaceOnUse" gradientTransform="matrix(600.063,-768.081,758.657,592.701,-5102.933,8632.014)">
			<stop offset="0" stop-color="#4042e2"/>
			<stop offset="1" stop-color="#4f52ff"/>
		</linearGradient>
		<linearGradient id="g73" x2="1" gradientUnits="userSpaceOnUse" gradientTransform="matrix(74.428,0,0,47.622,803.815,1127.572)">
			<stop offset="0" stop-color="#ff928e"/>
			<stop offset="1" stop-color="#feb3b1"/>
		</linearGradient>
		<linearGradient id="g74" x2="1" gradientUnits="userSpaceOnUse" gradientTransform="matrix(-0.813,138.989,-103.971,-0.608,731.468,928.673)">
			<stop offset="0" stop-color="#ff928e"/>
			<stop offset="1" stop-color="#feb3b1"/>
		</linearGradient>
		<linearGradient id="g75" x2="1" gradientUnits="userSpaceOnUse" gradientTransform="matrix(-17.624,122.168,-100.301,-14.469,761.869,901.272)">
			<stop offset="0" stop-color="#ff928e"/>
			<stop offset="1" stop-color="#feb3b1"/>
		</linearGradient>
		<linearGradient id="g76" x2="1" gradientUnits="userSpaceOnUse" gradientTransform="matrix(77.854,-42.937,55.982,101.507,723.563,949.523)">
			<stop offset="0" stop-color="#09005d"/>
			<stop offset="1" stop-color="#1a0f91"/>
		</linearGradient>
		<linearGradient id="g77" x2="1" gradientUnits="userSpaceOnUse" gradientTransform="matrix(22.697,-82.465,84.301,23.202,704.069,1022.199)">
			<stop offset="0" stop-color="#ff928e"/>
			<stop offset="1" stop-color="#feb3b1"/>
		</linearGradient>
		<linearGradient id="g78" x2="1" gradientUnits="userSpaceOnUse" gradientTransform="matrix(-119.219,-34.1,33.083,-115.664,523.637,1260.605)">
			<stop offset="0" stop-color="#09005d"/>
			<stop offset="1" stop-color="#1a0f91"/>
		</linearGradient>
		<linearGradient id="g79" x2="1" gradientUnits="userSpaceOnUse" gradientTransform="matrix(-1171.403,-335.051,350.836,-1226.59,724.41,1477.584)">
			<stop offset="0" stop-color="#4042e2"/>
			<stop offset="1" stop-color="#4f52ff"/>
		</linearGradient>
		<linearGradient id="g80" x2="1" gradientUnits="userSpaceOnUse" gradientTransform="matrix(-112,296,-270.818,-102.472,553.128,647.239)">
			<stop offset="0" stop-color="#09005d"/>
			<stop offset="1" stop-color="#1a0f91"/>
		</linearGradient>
		<linearGradient id="g81" x2="1" gradientUnits="userSpaceOnUse" gradientTransform="matrix(478.069,-98.366,147.061,714.734,7560.214,-131.64)">
			<stop offset="0" stop-color="#4042e2"/>
			<stop offset="1" stop-color="#4f52ff"/>
		</linearGradient>
		<linearGradient id="g82" x2="1" gradientUnits="userSpaceOnUse" gradientTransform="matrix(478.07,-98.366,146.731,713.128,7564.739,-109.632)">
			<stop offset="0" stop-color="#4042e2"/>
			<stop offset="1" stop-color="#4f52ff"/>
		</linearGradient>
		<linearGradient id="g83" x2="1" gradientUnits="userSpaceOnUse" gradientTransform="matrix(478.069,-98.366,143.593,697.881,7551.326,-174.844)">
			<stop offset="0" stop-color="#4042e2"/>
			<stop offset="1" stop-color="#4f52ff"/>
		</linearGradient>
		<linearGradient id="g84" x2="1" gradientUnits="userSpaceOnUse" gradientTransform="matrix(296.045,-88.526,3.676,12.293,790.769,1108.679)">
			<stop offset="0" stop-color="#dae3fe"/>
			<stop offset="1" stop-color="#e9effd"/>
		</linearGradient>
		<linearGradient id="g85" x2="1" gradientUnits="userSpaceOnUse" gradientTransform="matrix(244.638,-73.154,63.54,212.487,583.676,1182.578)">
			<stop offset="0" stop-color="#09005d"/>
			<stop offset="1" stop-color="#1a0f91"/>
		</linearGradient>
		<linearGradient id="g86" x2="1" gradientUnits="userSpaceOnUse" gradientTransform="matrix(-9,68,-62.595,-8.285,903.019,975.753)">
			<stop offset="0" stop-color="#ff928e"/>
			<stop offset="1" stop-color="#feb3b1"/>
		</linearGradient>
		<linearGradient id="g87" x2="1" gradientUnits="userSpaceOnUse" gradientTransform="matrix(-24,36,-120.02,-80.013,716.976,1108.651)">
			<stop offset="0" stop-color="#ff928e"/>
			<stop offset="1" stop-color="#feb3b1"/>
		</linearGradient>
	</defs>
	<style>
		.s0 { fill: url(#g1) } 
		.s1 { fill: #91b3fa } 
		.s2 { fill: #ffffff } 
		.s3 { fill: #7d97f4 } 
		.s4 { fill: #bdd0fb } 
		.s5 { fill: url(#g2) } 
		.s6 { fill: url(#g3) } 
		.s7 { opacity: .68;fill: #ffffff } 
		.s8 { fill: url(#g4) } 
		.s9 { fill: url(#g5) } 
		.s10 { fill: url(#g6) } 
		.s11 { fill: url(#g7) } 
		.s12 { fill: url(#g8) } 
		.s13 { fill: url(#g9) } 
		.s14 { fill: url(#g10) } 
		.s15 { fill: url(#g11) } 
		.s16 { fill: url(#g12) } 
		.s17 { fill: url(#g13) } 
		.s18 { fill: url(#g14) } 
		.s19 { fill: url(#g15) } 
		.s20 { fill: url(#g16) } 
		.s21 { fill: url(#g17) } 
		.s22 { fill: url(#g18) } 
		.s23 { fill: url(#g19) } 
		.s24 { fill: url(#g20) } 
		.s25 { fill: url(#g21) } 
		.s26 { fill: url(#g22) } 
		.s27 { fill: url(#g23) } 
		.s28 { fill: url(#g24) } 
		.s29 { fill: url(#g25) } 
		.s30 { fill: url(#g26) } 
		.s31 { fill: url(#g27) } 
		.s32 { fill: url(#g28) } 
		.s33 { fill: url(#g29) } 
		.s34 { fill: url(#g30) } 
		.s35 { fill: url(#g31) } 
		.s36 { fill: url(#g32) } 
		.s37 { fill: url(#g33) } 
		.s38 { fill: url(#g34) } 
		.s39 { fill: url(#g35) } 
		.s40 { fill: url(#g36) } 
		.s41 { fill: url(#g37) } 
		.s42 { fill: url(#g38) } 
		.s43 { fill: url(#g39) } 
		.s44 { fill: url(#g40) } 
		.s45 { opacity: .6;fill: #ffffff } 
		.s46 { fill: url(#g41) } 
		.s47 { fill: url(#g42) } 
		.s48 { fill: url(#g43) } 
		.s49 { fill: url(#g44) } 
		.s50 { fill: url(#g45) } 
		.s51 { fill: url(#g46) } 
		.s52 { fill: url(#g47) } 
		.s53 { fill: url(#g48) } 
		.s54 { fill: url(#g49) } 
		.s55 { fill: url(#g50) } 
		.s56 { fill: url(#g51) } 
		.s57 { fill: url(#g52) } 
		.s58 { fill: url(#g53) } 
		.s59 { fill: url(#g54) } 
		.s60 { fill: url(#g55) } 
		.s61 { fill: url(#g56) } 
		.s62 { fill: url(#g57) } 
		.s63 { fill: url(#g58) } 
		.s64 { fill: url(#g59) } 
		.s65 { fill: url(#g60) } 
		.s66 { fill: url(#g61) } 
		.s67 { fill: url(#g62) } 
		.s68 { fill: url(#g63) } 
		.s69 { fill: url(#g64) } 
		.s70 { fill: url(#g65) } 
		.s71 { fill: url(#g66) } 
		.s72 { fill: url(#g67) } 
		.s73 { fill: url(#g68) } 
		.s74 { fill: url(#g69) } 
		.s75 { fill: url(#g70) } 
		.s76 { fill: url(#g71) } 
		.s77 { fill: url(#g72) } 
		.s78 { fill: url(#g73) } 
		.s79 { fill: url(#g74) } 
		.s80 { fill: url(#g75) } 
		.s81 { fill: url(#g76) } 
		.s82 { fill: url(#g77) } 
		.s83 { fill: url(#g78) } 
		.s84 { fill: url(#g79) } 
		.s85 { fill: url(#g80) } 
		.s86 { fill: url(#g81) } 
		.s87 { fill: url(#g82) } 
		.s88 { fill: url(#g83) } 
		.s89 { fill: url(#g84) } 
		.s90 { fill: url(#g85) } 
		.s91 { fill: url(#g86) } 
		.s92 { fill: url(#g87) } 
	</style>
	<g id="Illustration">
		<g>
			<path class="s0" d="m2219.1 870.3c-16.9-85.6 51.6-161.4 87.3-241.1 64.1-142.7 15.9-322-98.8-428.4-114.8-106.3-284.5-142.6-438-112.7-238.2 46.3-447.6 236.3-689 211.4-105.8-11-202.2-62.9-300.6-103.5-98.4-40.6-209.5-70.4-310.1-35.7-99.3 34.2-170.6 128.9-192.8 231.6-22.2 102.6 0 211.1 44.6 306.1 23.6 50 52.2 112.7 17 155.3-25.3 30.7-71.3 32.5-106.1 51.9-55.6 31.1-81.8 108.8-57.3 167.6 24.2 57.9 61.9 84.1 122.2 92.5 59.9 8.5 106.2 17.2 147.9 65.4 93.9 108.5 204 229.6 349.5 264.4 42.1 10.1 89.8 14.4 133 11.2 119.9-8.9 237.1-47.4 343.2-103.5 191.9-101.4 689.8 22.5 876.6-88.2 50.1-29.7 97-67.3 127.9-116.8 30.8-49.5 43.8-112.1 25.1-167.3-19.4-57-69.9-101.1-81.6-160.2z"/>
			<g>
				<g id="Clip-Path" clip-path="url(#cp1)">
					<g>
						<g>
							<path class="s1" d="m1666.2 661.5c-0.2-10.6-8.8-19.3-19.4-19.3h-398.3c-10.6 0-21.1 9.2-21.1 19.9v961.1c0 5.2 2.9 10.1 6.6 13.8 3.6 3.6 9 5.7 14.1 5.6l416.5-1.1c5.1 0 10.2-2.1 13.8-5.8 3.7-3.8 5.7-8.9 5.6-14.1z"/>
							<g style="opacity: .5">
								<g>
									<path class="s2" d="m1372.8 755.5l-113.4-0.2-0.9-58.6h113.6z"/>
									<path class="s2" d="m1500 755.4l-113.3-0.1-0.8-58.6h113.5z"/>
									<path class="s2" d="m1627.1 755.4l-113.3-0.2-0.6-58.5h113.3z"/>
								</g>
								<g>
									<path class="s2" d="m1374.3 860.6h-113.3l-0.9-58.1 113.4-0.1z"/>
									<path class="s2" d="m1501.2 860.5l-113.1 0.1-0.8-58.2h113.3z"/>
									<g>
										<path class="s2" d="m1628 860.4l-113 0.1-0.6-58.1 113.1-0.1z"/>
									</g>
								</g>
								<g>
									<path class="s2" d="m1375.7 965l-113.1 0.1-0.9-58 113.2-0.1z"/>
									<path class="s2" d="m1502.4 964.8l-112.9 0.1-0.8-57.9 113-0.1z"/>
									<path class="s2" d="m1629 964.7l-112.8 0.1-0.7-57.9 113-0.1z"/>
								</g>
								<g>
									<path class="s2" d="m1377.1 1069l-112.9 0.1-0.9-57.7 113-0.2z"/>
									<path class="s2" d="m1503.6 1068.8l-112.8 0.2-0.7-57.8 112.8-0.1z"/>
									<path class="s2" d="m1630 1068.6l-112.7 0.2-0.6-57.7 112.7-0.2z"/>
								</g>
								<g>
									<path class="s2" d="m1378.5 1172.7l-112.7 0.2-0.9-57.6 112.8-0.2z"/>
									<path class="s2" d="m1504.8 1172.4l-112.6 0.2-0.7-57.5 112.6-0.2z"/>
									<path class="s2" d="m1630.9 1172.2l-112.4 0.2-0.6-57.5 112.5-0.2z"/>
								</g>
								<g>
									<path class="s2" d="m1379.9 1276l-112.5 0.2-0.9-57.4 112.6-0.2z"/>
									<path class="s2" d="m1506 1275.7l-112.4 0.2-0.8-57.3 112.5-0.3z"/>
									<path class="s2" d="m1631.9 1275.4l-112.2 0.2-0.7-57.3 112.4-0.2z"/>
								</g>
								<g>
									<path class="s2" d="m1381.3 1378.9l-112.3 0.3-0.9-57.2 112.4-0.2z"/>
									<path class="s2" d="m1507.1 1378.6l-112.1 0.3-0.8-57.2 112.3-0.3z"/>
									<path class="s2" d="m1632.9 1378.2l-112.1 0.3-0.6-57.1 112.1-0.3z"/>
								</g>
								<g>
									<path class="s2" d="m1382.7 1481.5l-112.1 0.4-0.9-57 112.2-0.3z"/>
									<path class="s2" d="m1508.3 1481.1l-112 0.4-0.7-57 112.1-0.3z"/>
									<path class="s2" d="m1633.8 1480.7l-111.8 0.4-0.7-56.9 112-0.4z"/>
								</g>
								<g>
									<path class="s2" d="m1384.1 1583.8l-111.9 0.4-0.9-56.8 112-0.4z"/>
									<path class="s2" d="m1509.5 1583.3l-111.8 0.4-0.8-56.7 111.9-0.4z"/>
									<path class="s2" d="m1634.8 1582.9l-111.7 0.4-0.6-56.8 111.7-0.3z"/>
								</g>
							</g>
						</g>
						<g>
							<path class="s3" d="m2040.5 781c-0.3-8-10.5-14.6-23-14.6h-472.2c-12.7 0-25.1 7-25.1 15.1v726.6c0 3.9 3.5 7.7 7.8 10.4 4.3 2.8 10.7 4.3 16.8 4.3l493.8-0.9c6.1 0 12.1-1.6 16.4-4.4 4.3-2.8 6.7-6.7 6.6-10.6z"/>
							<g>
								<g>
									<path class="s1" d="m1692.7 852l-134.6-0.1-1-44.2h134.6z"/>
									<path class="s1" d="m1843.5 852l-134.4-0.1-1-44.2h134.6z"/>
									<path class="s1" d="m1994.1 852l-134.3-0.1-0.7-44.2h134.4z"/>
								</g>
								<g>
									<path class="s1" d="m1694.3 931.5l-134.3 0.1-1-44 134.4-0.1z"/>
									<path class="s1" d="m1844.9 931.5h-134.2l-0.9-44h134.3z"/>
									<path class="s1" d="m1995.3 931.4h-134.1l-0.7-43.9h134.1z"/>
								</g>
								<g>
									<path class="s1" d="m1696 1010.4l-134.1 0.1-1-43.8 134.2-0.1z"/>
									<path class="s1" d="m1846.3 1010.3l-133.9 0.1-1-43.8 134.1-0.1z"/>
									<path class="s1" d="m1996.4 1010.2l-133.8 0.1-0.8-43.8h134z"/>
								</g>
								<g>
									<path class="s1" d="m1697.7 1089.1l-133.9 0.1-1-43.7 134-0.1z"/>
									<path class="s1" d="m1847.7 1088.9l-133.7 0.2-0.9-43.7 133.8-0.1z"/>
									<path class="s1" d="m1997.6 1088.8l-133.6 0.1-0.8-43.6 133.7-0.1z"/>
								</g>
								<g>
									<path class="s1" d="m1699.3 1167.5l-133.6 0.1-1-43.5 133.7-0.1z"/>
									<path class="s1" d="m1849.1 1167.3l-133.5 0.1-0.9-43.5 133.6-0.1z"/>
									<path class="s1" d="m1998.7 1167.1l-133.3 0.2-0.8-43.5 133.5-0.2z"/>
								</g>
								<g>
									<path class="s1" d="m1701 1245.6l-133.4 0.2-1-43.4 133.5-0.2z"/>
									<path class="s1" d="m1850.5 1245.4l-133.2 0.2-0.9-43.4 133.3-0.2z"/>
									<path class="s1" d="m1999.9 1245.1l-133.2 0.2-0.7-43.3 133.2-0.2z"/>
								</g>
								<g>
									<path class="s1" d="m1702.7 1323.4l-133.2 0.2-1-43.2 133.2-0.2z"/>
									<path class="s1" d="m1851.9 1323.2l-133 0.2-0.9-43.2 133.1-0.2z"/>
									<path class="s1" d="m2001 1322.9l-132.9 0.2-0.7-43.2 133-0.2z"/>
								</g>
								<g>
									<path class="s1" d="m1704.3 1401l-132.9 0.3-1.1-43.1 133.1-0.3z"/>
									<path class="s1" d="m1853.3 1400.7l-132.8 0.3-0.9-43.1 132.9-0.2z"/>
									<path class="s1" d="m2002.1 1400.4l-132.6 0.3-0.8-43.1 132.8-0.2z"/>
								</g>
								<g>
									<path class="s1" d="m1705.9 1478.3l-132.6 0.3-1.1-42.9 132.8-0.3z"/>
									<path class="s1" d="m1854.7 1478l-132.6 0.3-0.9-43 132.7-0.2z"/>
									<path class="s1" d="m2003.3 1477.6l-132.5 0.3-0.7-42.9 132.5-0.2z"/>
								</g>
							</g>
						</g>
						<g>
							<path class="s1" d="m2312.9 1060c-0.1-3.2-4.9-5.7-10.8-5.7h-355.4c-5.9 0-12.2 2.6-12.2 5.8v449.6c0 2.4 2.5 4.7 5.6 6.4 3.2 1.7 7.8 2.6 12.2 2.6l359.3-0.5c4.5 0 8.9-1 12-2.7 3.1-1.8 4.9-4.1 4.8-6.5z"/>
							<g>
								<path class="s1" d="m2108.8 1086.1l-116.3-0.2v-7.9l116.2 0.2z"/>
								<path class="s1" d="m2109.1 1115.2l-116.8-0.3 0.1-8 116.6 0.3z"/>
								<path class="s1" d="m2109.4 1144.4l-117.2-0.3v-8l117.1 0.3z"/>
								<path class="s1" d="m2109.7 1174l-117.7-0.5 0.1-8.1 117.5 0.5z"/>
								<path class="s1" d="m2110.1 1203.7l-118.2-0.5v-8.1l118.1 0.5z"/>
								<path class="s1" d="m2110.7 1264l-119.2-0.6 0.1-8.3 119 0.6z"/>
								<path class="s1" d="m2111.7 1356.4l-120.7-0.9 0.1-8.5 120.5 0.9z"/>
								<path class="s1" d="m2110.4 1233.8l-118.7-0.6v-8.2l118.6 0.5z"/>
								<path class="s1" d="m2111.1 1294.6l-119.7-0.8v-8.3l119.6 0.7z"/>
								<path class="s1" d="m2111.4 1325.3l-120.2-0.8v-8.4l120.1 0.8z"/>
								<path class="s1" d="m2112.1 1387.7l-121.3-1 0.1-8.6 121.1 1z"/>
								<path class="s1" d="m2112.4 1419.3l-121.7-1.1v-8.6l121.6 1z"/>
								<path class="s1" d="m2112.8 1451.1l-122.3-1.1v-8.7l122.2 1.1z"/>
								<path class="s1" d="m2113.1 1483.3l-122.8-1.3 0.1-8.8 122.6 1.2z"/>
								<path class="s1" d="m2261.2 1086.4l-117-0.2-0.1-7.9 116.8 0.2z"/>
								<path class="s1" d="m2262.1 1115.5l-117.4-0.3-0.2-7.9 117.4 0.2z"/>
								<path class="s1" d="m2263.1 1144.9l-118-0.4-0.1-8 117.8 0.3z"/>
								<path class="s1" d="m2264.1 1174.5l-118.5-0.4-0.1-8.1 118.3 0.4z"/>
								<path class="s1" d="m2265 1204.4l-118.9-0.5-0.1-8.2 118.8 0.5z"/>
								<path class="s1" d="m2267 1264.9l-120-0.7-0.1-8.3 119.8 0.7z"/>
								<path class="s1" d="m2270 1357.6l-121.5-0.9-0.1-8.6 121.3 0.9z"/>
								<path class="s1" d="m2266 1234.5l-119.4-0.6-0.2-8.2 119.3 0.6z"/>
								<path class="s1" d="m2268 1295.5l-120.5-0.7-0.1-8.4 120.3 0.7z"/>
								<path class="s1" d="m2269 1326.4l-121-0.8-0.1-8.5 120.8 0.8z"/>
								<path class="s1" d="m2271 1389l-122-1-0.1-8.6 121.9 1z"/>
								<path class="s1" d="m2272.1 1420.7l-122.6-1.1-0.1-8.7 122.4 1.1z"/>
								<path class="s1" d="m2273.1 1452.6l-123.1-1.1-0.1-8.8 122.9 1.2z"/>
								<path class="s1" d="m2274.2 1484.9l-123.6-1.3-0.2-8.8 123.5 1.2z"/>
							</g>
						</g>
					</g>
				</g>
			</g>
			<g>
				<g>
					<path class="s4" d="m2035.9 927.9c32.1-65 39.8-134 26.4-192.1-12.1-51.9-4.1-106.8 23.4-152.6q4.3-7.2 8.1-14.9c38.6-78.1 22.3-165-36.4-194-58.7-29-137.6 10.8-176.2 88.9-7.9 15.9-13.5 32.3-16.9 48.4-10.9 51.5-40 97.6-83.1 127.7-38.5 27-72.7 66.2-96.8 114.9-35.9 72.6-41.4 150.3-20.7 212.2 7.8 23.4 11.4 48.1 10.3 72.8-1.8 40.9 15.7 77.9 48.6 94.2 35.6 17.6 79.3 6.2 111.7-25.2 18.3-17.7 39.9-31.6 63.2-41.9 55-24.3 105.9-72.8 138.4-138.4z"/>
					<path class="s1" d="m2036.9 467.5c-17.9 55.5-37.5 110.3-57.6 164.9-5.1 13.6-10.3 27.2-15.5 40.8l-7.8 20.3-8 20.4c-5.4 13.5-10.6 27.1-16.1 40.5l-16.6 40.4c-11.4 26.8-22.6 53.7-34.5 80.3-5.9 13.3-11.6 26.7-17.8 39.8l-18.4 39.6c-25.1 52.6-51.5 104.5-80.4 155l-2.2-1.2 20.2-38.6 5.1-9.6 4.9-9.8 9.6-19.5 9.7-19.6c3.2-6.5 6.2-13.1 9.3-19.7 6.2-13.1 12.5-26.2 18.6-39.4 24-53 47.3-106.2 69.5-159.9 10.9-27 22-53.8 32.7-80.9l8.1-20.2 7.9-20.3c5.3-13.6 10.6-27.1 15.7-40.7q15.8-40.6 31-81.5c10.3-27.2 20.3-54.5 30.2-81.9z"/>
				</g>
				<g>
					<path class="s4" d="m1998.4 1430.8c28.6-38.3 41.8-82.3 39.9-121.7-1.7-35.2 10-69.9 33.3-96.4q3.6-4.2 7-8.8c34.4-46.1 34.1-104.6-0.7-130.5-34.9-25.9-90.9-9.5-125.3 36.7-7 9.4-12.6 19.4-16.7 29.5-13.2 32.1-37.6 58.6-69.2 73.1-28.3 12.9-55.2 34.3-76.6 63-32 43-44.8 92.9-38.6 135.5 2.3 16.2 1.7 32.7-1.9 48.6-6 26.4 1 52.6 20.5 67.1 21.1 15.7 50.9 13.5 75.7-2.9 14-9.4 29.7-15.8 46.1-19.7 38.7-9.2 77.6-34.6 106.5-73.5z"/>
					<path class="s1" d="m2053.5 1131.6c-18.2 33.9-37.4 67.2-57 100.3-4.9 8.2-9.9 16.4-14.9 24.7l-7.5 12.3-7.6 12.2c-5.1 8.2-10.1 16.4-15.3 24.5l-15.6 24.3c-10.6 16-21.1 32.1-31.9 48-5.5 7.9-10.7 16-16.3 23.8l-16.7 23.5c-22.6 31.2-45.9 61.8-70.7 91.2l-1.3-1.1 17.8-22.6 4.4-5.7 4.3-5.8 8.6-11.5 8.6-11.6c2.9-3.8 5.6-7.8 8.4-11.6 5.6-7.9 11.2-15.6 16.8-23.5 21.8-31.5 43.3-63.4 64.1-95.6 10.3-16.3 20.7-32.4 30.9-48.7l7.7-12.2 7.5-12.2c5.1-8.2 10.1-16.4 15.1-24.6q15.1-24.5 29.8-49.3c9.9-16.5 19.6-33 29.3-49.6z"/>
				</g>
			</g>
			<g>
				<g id="Clip-Path" clip-path="url(#cp2)">
					<g>
						<g>
							<path class="s3" d="m1036.4 661.5c-0.2-10.6-8.8-19.3-19.3-19.3h-398.3c-10.7 0-21.2 9.2-21.2 19.9v961.1c0 5.2 3 10.1 6.6 13.8 3.7 3.6 9 5.7 14.2 5.6l416.4-1.1c5.2 0 10.3-2.1 13.9-5.8 3.6-3.8 5.6-8.9 5.5-14.1z"/>
							<g>
								<g>
									<path class="s1" d="m743.1 755.5l-113.5-0.2-0.9-58.6h113.6z"/>
									<path class="s1" d="m870.3 755.4l-113.4-0.1-0.8-58.6h113.5z"/>
									<path class="s1" d="m997.3 755.4l-113.2-0.2-0.7-58.5h113.4z"/>
								</g>
								<g>
									<path class="s1" d="m744.5 860.6h-113.3l-0.9-58.1 113.4-0.1z"/>
									<path class="s1" d="m871.5 860.5l-113.2 0.1-0.8-58.2h113.3z"/>
									<g>
										<path class="s1" d="m998.3 860.4l-113.1 0.1-0.6-58.1 113.1-0.1z"/>
									</g>
								</g>
								<g>
									<path class="s1" d="m745.9 965l-113 0.1-0.9-58 113.1-0.1z"/>
									<path class="s1" d="m872.6 964.8l-112.9 0.1-0.8-57.9 113.1-0.1z"/>
									<path class="s1" d="m999.3 964.7l-112.9 0.1-0.6-57.9 112.9-0.1z"/>
								</g>
								<g>
									<path class="s1" d="m747.3 1069l-112.8 0.1-0.9-57.7 112.9-0.2z"/>
									<path class="s1" d="m873.8 1068.8l-112.7 0.2-0.8-57.8 112.9-0.1z"/>
									<path class="s1" d="m1000.2 1068.6l-112.6 0.2-0.7-57.7 112.8-0.2z"/>
								</g>
								<g>
									<path class="s1" d="m748.7 1172.7l-112.6 0.2-0.9-57.6 112.7-0.2z"/>
									<path class="s1" d="m875 1172.4l-112.5 0.2-0.8-57.5 112.7-0.2z"/>
									<path class="s1" d="m1001.2 1172.2l-112.5 0.2-0.6-57.5 112.6-0.2z"/>
								</g>
								<g>
									<path class="s1" d="m750.1 1276l-112.5 0.2-0.8-57.4 112.5-0.2z"/>
									<path class="s1" d="m876.2 1275.7l-112.4 0.2-0.7-57.3 112.4-0.3z"/>
									<path class="s1" d="m1002.2 1275.4l-112.3 0.2-0.6-57.3 112.3-0.2z"/>
								</g>
								<g>
									<path class="s1" d="m751.5 1378.9l-112.3 0.3-0.8-57.2 112.3-0.2z"/>
									<path class="s1" d="m877.4 1378.6l-112.2 0.3-0.8-57.2 112.3-0.3z"/>
									<path class="s1" d="m1003.1 1378.2l-112.1 0.3-0.6-57.1 112.2-0.3z"/>
								</g>
								<g>
									<path class="s1" d="m752.9 1481.5l-112.1 0.4-0.9-57 112.2-0.3z"/>
									<path class="s1" d="m878.5 1481.1l-111.9 0.4-0.8-57 112.1-0.3z"/>
									<path class="s1" d="m1004.1 1480.7l-111.9 0.4-0.6-56.9 111.9-0.4z"/>
								</g>
								<g>
									<path class="s1" d="m754.3 1583.8l-111.9 0.4-0.9-56.8 112-0.4z"/>
									<path class="s1" d="m879.7 1583.3l-111.8 0.4-0.7-56.7 111.9-0.4z"/>
									<path class="s1" d="m1005 1582.9l-111.7 0.4-0.6-56.8 111.8-0.3z"/>
								</g>
							</g>
						</g>
						<g>
							<path class="s1" d="m679.2 1005c-0.2-5.6-7.3-10.2-16-10.2h-329.7c-8.8 0-17.5 4.9-17.5 10.5v507.2c0 2.8 2.4 5.4 5.5 7.3 3 1.9 7.4 3 11.7 3l344.7-0.6c4.3 0 8.5-1.1 11.5-3.1 3-1.9 4.7-4.7 4.6-7.4z"/>
							<g>
								<g>
									<path class="s3" d="m436.4 1054.6l-93.9-0.1-0.8-30.9h94.1z"/>
									<path class="s3" d="m541.7 1054.6l-93.8-0.1-0.7-30.9h93.9z"/>
									<path class="s3" d="m646.8 1054.5h-93.7l-0.5-30.9h93.8z"/>
								</g>
								<g>
									<path class="s3" d="m437.6 1110.1h-93.8l-0.7-30.7h93.8z"/>
									<path class="s3" d="m542.7 1110h-93.7l-0.6-30.6 93.7-0.1z"/>
									<path class="s3" d="m647.6 1110h-93.5l-0.6-30.7h93.7z"/>
								</g>
								<g>
									<path class="s3" d="m438.7 1165.1l-93.5 0.1-0.8-30.6h93.7z"/>
									<path class="s3" d="m543.7 1165.1h-93.5l-0.7-30.5 93.6-0.1z"/>
									<path class="s3" d="m648.5 1165l-93.5 0.1-0.5-30.6h93.5z"/>
								</g>
								<g>
									<path class="s3" d="m439.9 1220l-93.4 0.1-0.7-30.5h93.5z"/>
									<path class="s3" d="m544.6 1219.9l-93.3 0.1-0.6-30.4 93.4-0.1z"/>
									<path class="s3" d="m649.3 1219.9h-93.3l-0.5-30.4 93.3-0.1z"/>
								</g>
								<g>
									<path class="s3" d="m441.1 1274.8l-93.3 0.1-0.7-30.4 93.3-0.1z"/>
									<path class="s3" d="m545.6 1274.6l-93.2 0.1-0.6-30.3 93.3-0.1z"/>
									<path class="s3" d="m650.1 1274.5l-93.1 0.1-0.6-30.3 93.2-0.1z"/>
								</g>
								<g>
									<path class="s3" d="m442.2 1329.3l-93.1 0.1-0.7-30.3 93.2-0.1z"/>
									<path class="s3" d="m546.6 1329.1l-93 0.2-0.6-30.3 93.1-0.1z"/>
									<path class="s3" d="m650.8 1329l-92.9 0.1-0.5-30.2 93-0.2z"/>
								</g>
								<g>
									<path class="s3" d="m443.4 1383.6l-93 0.2-0.7-30.2 93-0.1z"/>
									<path class="s3" d="m547.6 1383.4l-92.9 0.2-0.6-30.2 92.9-0.1z"/>
									<path class="s3" d="m651.6 1383.3l-92.7 0.1-0.5-30.1 92.8-0.2z"/>
								</g>
								<g>
									<path class="s3" d="m444.5 1437.8l-92.7 0.2-0.8-30.1 92.9-0.2z"/>
									<path class="s3" d="m548.5 1437.6l-92.7 0.2-0.6-30.1 92.8-0.2z"/>
									<path class="s3" d="m652.4 1437.4l-92.6 0.1-0.5-30 92.7-0.2z"/>
								</g>
								<g>
									<path class="s3" d="m445.7 1491.7l-92.6 0.2-0.8-29.9 92.7-0.2z"/>
									<path class="s3" d="m549.5 1491.5l-92.5 0.2-0.7-29.9 92.7-0.2z"/>
									<path class="s3" d="m653.2 1491.3l-92.4 0.2-0.5-30 92.5-0.2z"/>
								</g>
							</g>
						</g>
						<g>
							<path class="s1" d="m1353.2 1060c-0.1-3.2-4.9-5.7-10.7-5.7h-355.4c-6 0-12.3 2.6-12.3 5.8v449.6c0 2.4 2.5 4.7 5.7 6.4 3.1 1.7 7.7 2.6 12.2 2.6l359.3-0.5c4.4 0 8.8-1 11.9-2.7 3.2-1.8 4.9-4.1 4.8-6.5z"/>
							<g>
								<path class="s2" d="m1149.1 1086.1l-116.2-0.2v-7.9l116.1 0.2z"/>
								<path class="s2" d="m1149.4 1115.2l-116.7-0.3v-8l116.7 0.3z"/>
								<path class="s2" d="m1149.8 1144.4l-117.3-0.3 0.1-8 117.1 0.3z"/>
								<path class="s2" d="m1150.1 1174l-117.7-0.5v-8.1l117.6 0.5z"/>
								<path class="s2" d="m1150.4 1203.7l-118.2-0.5 0.1-8.1 118 0.5z"/>
								<path class="s2" d="m1151.1 1264l-119.2-0.6v-8.3l119.1 0.6z"/>
								<path class="s2" d="m1152.1 1356.4l-120.7-0.9v-8.5l120.6 0.9z"/>
								<path class="s2" d="m1150.7 1233.8l-118.6-0.6v-8.2l118.6 0.5z"/>
								<path class="s2" d="m1151.4 1294.6l-119.7-0.8 0.1-8.3 119.5 0.7z"/>
								<path class="s2" d="m1151.7 1325.3l-120.1-0.8v-8.4l120.1 0.8z"/>
								<path class="s2" d="m1152.4 1387.7l-121.2-1 0.1-8.6 121 1z"/>
								<path class="s2" d="m1152.8 1419.3l-121.8-1.1 0.1-8.6 121.6 1z"/>
								<path class="s2" d="m1153.1 1451.1l-122.2-1.1v-8.7l122.1 1.1z"/>
								<path class="s2" d="m1153.5 1483.3l-122.8-1.3v-8.8l122.7 1.2z"/>
								<path class="s2" d="m1301.5 1086.4l-116.9-0.2-0.2-7.9 116.9 0.2z"/>
								<path class="s2" d="m1302.5 1115.5l-117.5-0.3-0.1-7.9 117.3 0.2z"/>
								<path class="s2" d="m1303.5 1144.9l-118-0.4-0.1-8 117.8 0.3z"/>
								<path class="s2" d="m1304.4 1174.5l-118.4-0.4-0.2-8.1 118.4 0.4z"/>
								<path class="s2" d="m1305.4 1204.4l-119-0.5-0.1-8.2 118.8 0.5z"/>
								<path class="s2" d="m1307.4 1264.9l-120-0.7-0.1-8.3 119.8 0.7z"/>
								<path class="s2" d="m1310.4 1357.6l-121.5-0.9-0.2-8.6 121.4 0.9z"/>
								<path class="s2" d="m1306.4 1234.5l-119.5-0.6-0.1-8.2 119.3 0.6z"/>
								<path class="s2" d="m1308.4 1295.5l-120.5-0.7-0.1-8.4 120.3 0.7z"/>
								<path class="s2" d="m1309.4 1326.4l-121-0.8-0.1-8.5 120.8 0.8z"/>
								<path class="s2" d="m1311.4 1389l-122-1-0.2-8.6 121.9 1z"/>
								<path class="s2" d="m1312.4 1420.7l-122.5-1.1-0.1-8.7 122.4 1.1z"/>
								<path class="s2" d="m1313.5 1452.6l-123.1-1.1-0.1-8.8 122.9 1.2z"/>
								<path class="s2" d="m1314.5 1484.9l-123.6-1.3-0.1-8.8 123.4 1.2z"/>
							</g>
						</g>
					</g>
				</g>
			</g>
			<g>
				<path class="s4" d="m751.2 483.6l-25.5 108.2c-6.7 28.7 0 58.8 18.3 81.9l110 138.4c12.4 15.7 19.7 34.8 20.7 54.9l4.5 87.2c1.6 32.7 19.8 62.3 48.3 78.5 45.1 25.8 102.5 11.2 129.7-33.1l43.1-70.3c20.2-32.9 18.7-74.7-3.7-106.1l-74-103.7c-9.5-13.3-15.4-28.7-17.3-44.8l-19.3-166.7c-4.4-38.4-31.4-70.4-68.5-81.3l-45.7-13.3c-52.9-15.5-107.9 16.6-120.6 70.2z"/>
				<g>
					<path class="s1" d="m1008.7 1062.7q-0.4 0.1-0.8 0.1c-2.7 0.3-5.1-1.6-5.4-4.3-26.5-250.6-150.2-496.7-159.1-508.6-1.6-1.3-2.2-3.6-1.3-5.6 1.1-2.5 3.9-3.7 6.4-2.6 1.6 0.7 2.7 1.1 9.7 14.3 3.2 6.1 8.6 16.8 16.3 33.1 11.4 24.4 29.2 64.4 48.8 116.3 32.8 86.6 74.8 218 89 352 0.2 2.5-1.3 4.7-3.6 5.3zm-164-512q0 0 0 0 0 0 0 0zm-0.1 0q0 0 0 0 0 0 0 0z"/>
				</g>
			</g>
			<g>
				<path class="s4" d="m954.7 1207.3c-24.6-11.7-41-35.5-43.3-62.6-2.4-28.9-12-60.1-29.1-89.9-44.8-78.1-124.3-116.7-177.5-86.1-53.2 30.5-60 118.6-15.1 196.8 8.7 15.1 18.7 28.8 29.6 40.8 16.5 18.1 23.3 43.1 17.8 67-5.2 22.6-2.2 47.3 10.3 69.1 17.1 29.7 47.7 46.8 79.6 48 19 0.7 36.9 8.4 50.3 21.7 38.1 37.8 88.8 51.3 126.6 29.6 48.5-27.8 57.6-103 20.3-167.9-17.8-30.9-42.9-54-69.5-66.5z"/>
				<path class="s1" d="m1068.8 1528.2c-1.2 0.6-2.8 0.5-3.9-0.5-56-48.3-120.3-144.7-164.4-217.1-47.7-78.3-82.7-146.1-83-146.8-1-1.8-0.3-4 1.5-5 1.9-0.9 4.1-0.2 5 1.6 1.4 2.7 139.9 270.4 245.7 361.7 1.6 1.3 1.7 3.6 0.4 5.2q-0.6 0.6-1.3 0.9z"/>
			</g>
			<g>
				<g>
					<path class="s5" d="m707.9 513.9c-92.4 0-167.1-74.6-167.1-167 0-92.4 74.7-167 167.1-167 92.3 0 167 74.6 167 167 0 92.4-74.7 167-167 167z"/>
					<path class="s6" d="m707.9 508.4c-89.3 0-161.5-72.2-161.5-161.5 0-89.3 72.2-161.5 161.5-161.5 89.3 0 161.4 72.2 161.4 161.5 0 89.3-72.1 161.5-161.4 161.5z"/>
					<path class="s7" d="m574.7 285c-0.8 0-1.6-0.2-2.3-0.6-2.6-1.3-3.6-4.4-2.3-6.9 26.4-52.3 79.2-84.8 137.8-84.8 9.3 0 18.7 0.8 27.8 2.5 2.8 0.5 4.7 3.2 4.1 6-0.5 2.8-3.2 4.6-6 4.1-8.5-1.5-17.2-2.3-25.9-2.3-54.7 0-103.9 30.3-128.6 79.1-0.9 1.8-2.7 2.9-4.6 2.9z"/>
					<path class="s7" d="m846.3 372.3c-12.1 74.6-82.2 125.1-156.8 113-74.6-12.1-125.1-82.2-113-156.8 12.1-74.6 82.2-125.1 156.8-113 74.6 12.1 125.1 82.2 113 156.8z"/>
					<g>
						<path class="s8" d="m698 452v-14.9c-15.5-0.6-30.9-4.2-41.7-9-3.9-1.7-5.9-6.1-4.8-10.2l3.8-13.8c1.4-5.1 6.9-7.7 11.7-5.7 10.8 4.5 24.2 8.1 38.6 8.1 14.9 0 26-5 26-15.4 0-9.4-8.6-14.9-29.3-20.5-29.6-8.1-50.9-21-50.9-47.1 0-23.5 17.2-41.5 47.1-46.3v-14.9c0-4.7 3.9-8.6 8.6-8.6h8.8c4.8 0 8.6 3.9 8.6 8.6v13.4c14.4 0.6 24.8 3 33.1 5.9 4.3 1.5 6.6 6.1 5.4 10.4l-3.5 12.8c-1.3 5-6.6 7.7-11.4 5.9-7.6-2.9-18.4-5.9-32.4-5.9-17.7 0-22.8 7.3-22.8 13.9 0 8.1 10.6 13.7 33.7 20.8 32.9 9.8 46.5 23.5 46.5 48 0 22.6-16.7 42.8-49.1 47.9v16.6c0 4.8-3.8 8.7-8.6 8.7h-8.8c-4.7 0-8.6-3.9-8.6-8.7z"/>
					</g>
				</g>
				<g>
					<path class="s9" d="m462.8 707.7c-72.1 0-130.4-58.3-130.4-130.5 0-72.1 58.3-130.5 130.4-130.5 72.2 0 130.5 58.4 130.5 130.5 0 72.2-58.3 130.5-130.5 130.5z"/>
					<path class="s10" d="m462.8 703.4c-69.7 0-126.1-56.4-126.1-126.2 0-69.7 56.4-126.1 126.1-126.1 69.8 0 126.2 56.4 126.2 126.1 0 69.8-56.4 126.2-126.2 126.2z"/>
					<path class="s7" d="m358.8 528.9q-0.9 0-1.8-0.5c-2-1-2.8-3.4-1.8-5.4 20.7-40.9 61.9-66.3 107.6-66.3 7.3 0 14.7 0.7 21.8 2 2.2 0.4 3.6 2.5 3.2 4.7-0.4 2.2-2.5 3.6-4.7 3.2-6.6-1.2-13.4-1.8-20.3-1.8-42.6 0-81.1 23.7-100.4 61.8-0.7 1.5-2.1 2.3-3.6 2.3z"/>
					<path class="s7" d="m571.2 595.8c-8.8 58.4-63.1 98.5-121.5 89.8-58.4-8.8-98.5-63.1-89.7-121.5 8.8-58.4 63.1-98.5 121.5-89.7 58.4 8.8 98.5 63.1 89.7 121.4z"/>
					<g>
						<path class="s11" d="m455.1 659.3v-11.6c-12.1-0.5-24.1-3.3-32.6-7-3-1.4-4.6-4.8-3.7-8l3-10.8c1-4 5.4-6 9.1-4.4 8.5 3.5 18.9 6.3 30.1 6.3 11.7 0 20.4-3.9 20.4-12 0-7.4-6.7-11.7-22.9-16.1-23.2-6.3-39.8-16.4-39.8-36.7 0-18.4 13.5-32.4 36.8-36.2v-11.6c0-3.8 3-6.8 6.8-6.8h6.8c3.7 0 6.8 3 6.8 6.8v10.4c11.2 0.5 19.3 2.4 25.8 4.7 3.3 1.1 5.1 4.7 4.2 8.1l-2.7 10c-1.1 3.8-5.2 6-8.9 4.5-6-2.2-14.4-4.6-25.4-4.6-13.8 0-17.7 5.8-17.7 10.9 0 6.3 8.3 10.7 26.2 16.2 25.7 7.7 36.4 18.4 36.4 37.6 0 17.6-13 33.4-38.3 37.3v13c0 3.8-3.1 6.8-6.8 6.8h-6.8c-3.8 0-6.8-3-6.8-6.8z"/>
					</g>
				</g>
				<g>
					<path class="s12" d="m736.5 834.4c-61.1 0-110.5-49.4-110.5-110.6 0-61.1 49.4-110.5 110.5-110.5 61.1 0 110.5 49.4 110.5 110.5 0 61.2-49.4 110.6-110.5 110.6z"/>
					<path class="s13" d="m736.5 830.7c-59.1 0-106.9-47.8-106.9-106.9 0-59 47.8-106.8 106.9-106.8 59.1 0 106.8 47.8 106.8 106.8 0 59.1-47.7 106.9-106.8 106.9z"/>
					<path class="s7" d="m648.4 682.9q-0.8 0-1.6-0.4c-1.7-0.8-2.3-2.9-1.5-4.6 17.5-34.6 52.4-56.1 91.2-56.1 6.2 0 12.4 0.6 18.4 1.7 1.8 0.3 3.1 2.1 2.7 3.9-0.3 1.9-2.1 3.1-3.9 2.8-5.7-1-11.5-1.6-17.2-1.6-36.2 0-68.8 20.1-85.1 52.4-0.6 1.2-1.8 1.9-3 1.9z"/>
					<path class="s7" d="m828.1 740.7c-8 49.3-54.4 82.8-103.8 74.7-49.3-8-82.7-54.3-74.7-103.7 8-49.4 54.4-82.8 103.7-74.8 49.4 8 82.8 54.4 74.8 103.8z"/>
					<g>
						<path class="s14" d="m729.9 793.4v-9.8c-10.2-0.4-20.4-2.9-27.6-6-2.5-1.1-3.9-4-3.1-6.7l2.5-9.2c0.9-3.4 4.6-5.1 7.8-3.8 7.1 3 15.9 5.4 25.5 5.4 9.8 0 17.2-3.3 17.2-10.2 0-6.2-5.7-9.9-19.4-13.6-19.6-5.3-33.7-13.9-33.7-31.1 0-15.6 11.4-27.5 31.2-30.6v-9.9c0-3.2 2.5-5.7 5.7-5.7h5.8c3.1 0 5.7 2.5 5.7 5.7v8.8c9.5 0.4 16.4 2 21.9 4 2.8 1 4.3 4 3.6 6.9l-2.3 8.4c-0.9 3.3-4.4 5.1-7.6 3.9-5-1.9-12.2-3.9-21.4-3.9-11.8 0-15.1 4.9-15.1 9.2 0 5.4 7 9 22.3 13.7 21.7 6.6 30.8 15.6 30.8 31.8 0 14.9-11.1 28.3-32.5 31.7v11c0 3.2-2.6 5.7-5.8 5.7h-5.7c-3.2 0-5.8-2.5-5.8-5.7z"/>
					</g>
				</g>
			</g>
			<g>
				<g>
					<g>
						<path class="s15" d="m1042.4 252.5l779.5 8.5c43.1 0.5 76.9 37.7 76.9 84.4l-0.7 1155.5c-0.1 32.3-26.2 59.1-57.8 59.3l-835.7 3.7c-29.5 0.1-53.7-24.6-53.7-54.8v-1158.1c0-54.8 41-99.1 91.5-98.5z"/>
						<path class="s16" d="m1784.5 314.1h-708.8c-29.8 0-53.1 23.6-53.1 52.6v1031.7c0 29 23.3 50.7 53.1 50.7h708.8c29.7 0 54.5-21.7 54.5-50.7v-1031.7c0-29-24.8-52.6-54.5-52.6z"/>
						<g style="opacity: .17">
							<path class="s1" d="m1757.6 358.7h-651.7c-27.3 0-48.7 21.5-48.7 47.8v938.3c0 26.4 21.4 46.3 48.7 46.3h651.7c27.3 0 50.3-19.9 50.3-46.3v-938.3c0-26.3-23-47.8-50.3-47.8z"/>
						</g>
					</g>
				</g>
				<g>
					<path class="s17" d="m1238.3 842.9l-22.2 17.8c-6.2 4.9-2.9 15.5 4.8 15.4l364.5-2.1-98.7-58.9h-170.4c-28.1 0-55.5 9.7-78 27.8z"/>
					<path class="s18" d="m1781.2 1001.5q-0.5-4.5-1-9c-3.4-30.4-18.9-57.7-42.5-74.7l-1.9-1.3c-28.4-20.5-61.1-33.1-95.1-36.7l-55.3-5.8-364.5 2.1c-7.7 0.1-11-10.5-4.8-15.4l22.2-17.8c22.5-18.1 49.9-27.8 78-27.8h170.4l-1.3-0.6c-10.2-4.6-21.2-7-32.3-7h-160.5c-9.7 0-19.4 1.6-28.8 4.7l-120.7 48.2c-5.9 2-11.2 5.7-15.3 10.8l-25 31.2c-5.1 6.5-8 14.8-8 23.4v50.9c0 13.5 44.1 59.5 44.1 59.5 4.8 2.6 10.2 4 15.6 4h542.2l57.6-4.1c16.5-1.1 28.8-16.9 26.9-34.6z"/>
					<path class="s19" d="m1779.3 1024.5h-1.8c-3.3 0-6-2.9-6-6.5v-33c0-3.6 2.7-6.5 6-6.5 3.3 0 5.9 2.7 6.1 6.1l1.7 33c0.2 3.8-2.6 6.9-6 6.9z"/>
					<path class="s20" d="m1757.9 972.1h18.1c-6.8-22-20.1-41.2-38.3-54.3l-1.9-1.3q-2.8-2-5.7-4c3.7 13.9 8.3 33 11.3 45.8 1.9 8.1 8.7 13.8 16.5 13.8z"/>
					<path class="s21" d="m1143.1 898.1v-37.7c-5.9 2-11.2 5.7-15.3 10.8l-25 31.2c-4.3 5.5-7 12.2-7.7 19.2l34-5.8c8.1-1.4 14-8.9 14-17.7z"/>
					<path class="s22" d="m1525.5 872.3l-12.8-13.4c-5.4-5.6-12.1-9.4-19.4-11l-25.4-5.5c-6.9-1.5-13.6 3.7-14.3 11.3l-0.2 1.8c-0.8 7.8 4.9 14.5 12.1 14.4l32.7-0.4c4.5 0 8.7 2.9 10.5 7.4l0.6 1.5c0.8 2 2.6 3.3 4.6 3.3h8c4.6 0 6.8-5.9 3.6-9.4z"/>
					<path class="s23" d="m1394.2 896.7h55.9c4.3 0 7.4 4.6 5.9 9.1-2.6 7.4-8.7 16.9-23.1 18.1-13.1 1-29.5-7-41.9-14.6-5.6-3.4-3.3-12.6 3.2-12.6z"/>
					<path class="s24" d="m1229.6 1100.5c-40.8 0-73.8-32.9-73.8-73.7 0-40.8 33-73.8 73.8-73.8 40.8 0 73.8 33 73.8 73.8 0 40.8-33 73.7-73.8 73.7z"/>
					<path class="s25" d="m1229.6 1086.7c-33.1 0-59.9-26.8-59.9-59.9 0-33.2 26.8-60 59.9-60 33.1 0 59.9 26.8 59.9 60 0 33.1-26.8 59.9-59.9 59.9z"/>
					<path class="s26" d="m1664.8 1100.5c-40.8 0-73.8-32.9-73.8-73.7 0-40.8 33-73.8 73.8-73.8 40.8 0 73.7 33 73.7 73.8 0 40.8-32.9 73.7-73.7 73.7z"/>
					<path class="s27" d="m1664.8 1086.7c-33.2 0-60-26.8-60-59.9 0-33.2 26.8-60 60-60 33.1 0 59.9 26.8 59.9 60 0 33.1-26.8 59.9-59.9 59.9z"/>
					<path class="s28" d="m1713.6 1048.4q-0.2 0-0.4 0c-0.5-0.3-0.7-0.9-0.5-1.4 2.7-6.4 4.1-13.2 4.1-20.2 0-28.7-23.4-52.1-52-52.1-8.9 0-17.7 2.3-25.4 6.7-0.5 0.2-1.2 0.1-1.4-0.4-0.3-0.5-0.1-1.2 0.4-1.4 8-4.5 17.1-6.9 26.4-6.9 29.8 0 54 24.2 54 54.1 0 7.3-1.4 14.3-4.2 21-0.2 0.4-0.6 0.6-1 0.6z"/>
					<path class="s29" d="m1279.9 1048.4q-0.2 0-0.4 0c-0.5-0.3-0.7-0.9-0.5-1.4 2.7-6.4 4.1-13.2 4.1-20.2 0-28.7-23.4-52.1-52.1-52.1-8.9 0-17.6 2.3-25.3 6.7-0.5 0.2-1.2 0.1-1.4-0.4-0.3-0.5-0.1-1.2 0.3-1.4 8.1-4.5 17.2-6.9 26.4-6.9 29.9 0 54.1 24.2 54.1 54.1 0 7.3-1.4 14.3-4.2 21-0.2 0.4-0.6 0.6-1 0.6z"/>
					<path class="s30" d="m1318.9 1004c-0.5 0-0.9-0.3-1-0.8-6.6-34.5-26.2-56.4-58.4-65.2-24.1-6.6-46.6-2.9-46.8-2.9-0.6 0.1-1.1-0.3-1.2-0.8-0.1-0.6 0.3-1.1 0.8-1.2 0.3-0.1 23.1-3.8 47.7 2.9 22.7 6.2 51.5 22.8 59.9 66.8 0.1 0.6-0.3 1.1-0.8 1.2q-0.1 0-0.2 0z"/>
					<path class="s31" d="m1574.6 1015.3c-0.5 0-1-0.5-1-1-0.8-27.2 6.5-48.5 21.7-63.3 25.1-24.5 63.6-22.5 64-22.5 0.6 0 1 0.5 1 1.1 0 0.5-0.5 0.9-1.1 0.9-0.4 0-38-1.9-62.5 21.9-14.8 14.4-21.9 35.2-21 61.8 0 0.6-0.5 1-1 1.1q0 0-0.1 0z"/>
					<path class="s1" d="m1223.2 867.9c-0.4 0-0.7-0.1-0.9-0.5-0.3-0.5-0.1-1.1 0.4-1.4l49.4-28.1c14.1-8 30-12.4 46.2-12.7l56.7-1c0.6 0 1 0.5 1.1 1 0 0.6-0.5 1.1-1.1 1.1l-56.6 1c-15.9 0.3-31.5 4.6-45.3 12.4l-49.4 28.1q-0.2 0.1-0.5 0.1z"/>
				</g>
				<g>
					<path class="s1" d="m1351.2 622.1c0 4-3.2 7.2-7.2 7.2h-225c-4 0-7.2-3.2-7.2-7.2 0-4 3.2-7.3 7.2-7.3h225c4 0 7.2 3.3 7.2 7.3z"/>
					<path class="s1" d="m1351.2 661.1c0 4-3.2 7.2-7.2 7.2h-225c-4 0-7.2-3.2-7.2-7.2 0-4 3.2-7.3 7.2-7.3h225c4 0 7.2 3.3 7.2 7.3z"/>
					<path class="s1" d="m1351.2 700.1c0 3.9-3.2 7.2-7.2 7.2h-225c-4 0-7.2-3.3-7.2-7.2v-0.1c0-4 3.2-7.2 7.2-7.2h225c4 0 7.2 3.2 7.2 7.2z"/>
				</g>
				<g>
					<path class="s32" d="m1727.8 1217.3c0-37.5-30.4-67.9-67.8-67.9h-480.2c-37.5 0-67.9 30.4-67.9 67.9v34.6c0 37.5 30.4 67.9 67.9 67.9h480.2c37.4 0 67.8-30.4 67.8-67.9z"/>
					<g>
						<path class="s2" d="m1253.5 1247.5v40h-29.6v-109.8h36q44.7 0 44.7 32.4 0 19.1-18.6 29.6l32 47.8h-33.7l-23.2-40zm0-22.3h5.5q15.6 0 15.6-13.7 0-11.3-15.3-11.3h-5.8c0 0 0 25 0 25z"/>
						<path class="s2" d="m1393.2 1287.5h-65.2v-109.8h65.2v23.8h-35.5v17.3h32.9v23.8h-32.9v20.7h35.5z"/>
						<path class="s2" d="m1517 1287.5h-38.9l-40.2-77.4h-0.6q1.4 18.3 1.4 27.9v49.5h-26.3v-109.8h38.8l39.9 76.3h0.5q-1.1-16.6-1.1-26.7v-49.6h26.5z"/>
						<path class="s2" d="m1589.1 1287.5h-29.6v-85.5h-26.8v-24.3h83.2v24.3h-26.8c0 0 0 85.5 0 85.5z"/>
					</g>
				</g>
				<g>
					<path class="s1" d="m1792.4 416.1c0-10.8-8.7-19.6-19.6-19.6h-683.6c-10.8 0-19.6 8.8-19.6 19.6v67.7c0 10.8 8.8 19.6 19.6 19.6h683.6c10.9 0 19.6-8.8 19.6-19.6z"/>
					<g>
						<path class="s2" d="m1134.8 423.9c-8.7-7.8-22.3-7-30.1 1.7-7.9 8.7-7.3 22.3 1.4 30.2 7.7 6.9 19.5 6.7 26.9 1.3l5.9 5.4c0 1.5 0.5 3.4 1.8 4.7l19.6 17.6c2.5 2.3 6.2 1.5 8.5-1l0.1-0.1c2.2-2.5 2.2-5.8-0.3-8l-19.6-17.7c-1.3-1.2-3.3-1.5-4.1-2.2l-5.9-5.3c4.6-8 3.5-19.6-4.2-26.6zm-24.7 28.9c-6.8-6-7.3-16.4-1.2-23.1 6.1-6.8 16.4-7.3 23.2-1.2 6.7 6.1 7.2 16.4 1.1 23.2-6 6.7-16.4 7.2-23.1 1.1z"/>
						<g>
							<path class="s2" d="m1113.9 447.6q-0.1 0.1-0.2 0.1c-0.7 0.6-1.8 0.5-2.4-0.2-3.9-4.6-3.8-11.5 0.3-16 0.6-0.7 1.7-0.8 2.4-0.1 0.7 0.6 0.7 1.6 0.1 2.3-2.9 3.3-3 8.3-0.2 11.7 0.6 0.6 0.5 1.6 0 2.2z"/>
						</g>
					</g>
					<path class="s33" d="m1771.1 468.9c0 6.8-5.5 12.3-12.3 12.3h-546.8c-6.8 0-12.3-5.5-12.3-12.3v-38.9c0-6.8 5.5-12.3 12.3-12.3h546.8c6.8 0 12.3 5.5 12.3 12.3z"/>
					<path class="s3" d="m1223.3 467.4c0 1.4-1.2 2.6-2.6 2.6h-0.4c-1.4 0-2.6-1.2-2.6-2.6v-34.9c0-1.5 1.2-2.6 2.6-2.6h0.4c1.4 0 2.6 1.1 2.6 2.6z"/>
				</g>
				<g>
					<path class="s1" d="m1120.7 1528.1h-88c-29 0-53.5-24.4-53.5-53.4v-123.7c0-1.5 1.3-2.7 2.8-2.7 1.5 0 2.8 1.2 2.8 2.7v123.7c0 26 21.9 47.9 47.9 47.9h88c1.5 0 2.7 1.2 2.7 2.7 0 1.6-1.2 2.8-2.7 2.8z"/>
					<path class="s1" d="m982 1299.3c-1.5 0-2.8-1.3-2.8-2.8v-93.6c0-1.5 1.3-2.8 2.8-2.8 1.5 0 2.8 1.3 2.8 2.8v93.6c0 1.5-1.3 2.8-2.8 2.8z"/>
				</g>
				<g>
					<g>
						<g>
							<path class="s4" d="m1651.6 700.7c-6.7 0-12.7-3.5-15.9-9.4-16.8-30.7-36.9-71.1-36.9-89.4 0-29.2 23.7-52.9 52.8-52.9 29.2 0 52.9 23.7 52.9 52.9 0 18.3-20.1 58.7-36.9 89.4-3.3 5.9-9.2 9.4-16 9.4zm0-143.2c-24.4 0-44.3 19.9-44.3 44.4 0 12.7 13 43.8 35.8 85.3 1.8 3.2 4.9 5.1 8.5 5.1 3.6 0 6.8-1.9 8.5-5.1 22.8-41.5 35.9-72.6 35.9-85.3 0-24.5-19.9-44.4-44.4-44.4z"/>
						</g>
						<g>
							<path class="s4" d="m1651.6 635.1c-17.6 0-32-14.4-32-32 0-17.7 14.4-32.1 32-32.1 17.7 0 32.1 14.4 32.1 32.1 0 17.6-14.4 32-32.1 32zm0-55.6c-13 0-23.5 10.6-23.5 23.6 0 13 10.5 23.5 23.5 23.5 13 0 23.6-10.5 23.6-23.5 0-13-10.6-23.6-23.6-23.6z"/>
						</g>
					</g>
					<g>
						<path class="s4" d="m1651.3 758.6c-11.1 0-20.1-9-20.1-20.1 0-11.1 9-20.1 20.1-20.1 11.1 0 20.1 9 20.1 20.1 0 11.1-9 20.1-20.1 20.1z"/>
					</g>
				</g>
			</g>
			<g>
				<g>
					<path class="s34" d="m1701.9 1178.7c-98.9 0-178.8-79.9-178.8-178.7 0-98.9 79.9-178.8 178.8-178.8 98.8 0 178.8 79.9 178.8 178.8 0 98.8-80 178.7-178.8 178.7z"/>
					<g>
						<g id="Clip-Path" clip-path="url(#cp3)">
							<g>
								<path class="s35" d="m1209.6 819.8l-25.2 20.2c-7 5.6-3.3 17.6 5.5 17.6l414.2-2.5-112.1-67h-193.7c-31.9 0-63 11.1-88.7 31.7z"/>
								<path class="s36" d="m1826.7 1000q-0.6-5.1-1.1-10.2c-3.9-34.5-21.5-65.6-48.4-84.9l-2-1.5c-32.4-23.2-69.5-37.6-108.2-41.6l-62.9-6.7-414.2 2.5c-8.8 0-12.5-12-5.5-17.6l25.2-20.2c25.7-20.6 56.8-31.7 88.7-31.7h193.7l-1.5-0.6c-11.6-5.3-24.1-7.9-36.7-7.9h-182.4c-11.1 0-22.1 1.7-32.7 5.3l-137.2 54.7c-6.8 2.3-12.8 6.6-17.4 12.4l-28.4 35.4c-5.9 7.4-9.1 16.9-9.1 26.6v57.8c0 15.3 50.1 67.6 50.1 67.6 5.5 3 11.6 4.6 17.7 4.6h616.3l65.4-4.6c18.8-1.3 32.7-19.3 30.6-39.4z"/>
								<path class="s37" d="m1824.5 1026.2h-2c-3.8 0-6.9-3.4-6.9-7.5v-37.4c0-4.1 3.1-7.5 6.9-7.5 3.7 0 6.7 3.1 6.9 7.1l2 37.4c0.2 4.3-2.9 7.9-6.9 7.9z"/>
								<path class="s38" d="m1800.2 966.7h20.5c-7.6-25.1-22.8-46.9-43.5-61.8l-2-1.5q-3.3-2.3-6.5-4.5c4.2 15.8 9.3 37.5 12.7 52 2.2 9.3 9.9 15.8 18.8 15.8z"/>
								<path class="s2" d="m1101.5 882.5v-42.9c-6.8 2.3-12.8 6.6-17.4 12.4l-28.4 35.4c-4.9 6.2-8 13.8-8.8 21.8l38.7-6.6c9.1-1.6 15.9-10.1 15.9-20.1z"/>
								<path class="s1" d="m1536.1 853.2l-14.6-15.2c-6.1-6.4-13.7-10.7-22-12.6l-28.8-6.2c-7.9-1.7-15.5 4.2-16.4 12.9l-0.2 2c-0.8 8.8 5.6 16.5 13.8 16.4l37.1-0.5c5.2 0 9.9 3.3 12 8.4l0.6 1.7c0.9 2.3 3 3.8 5.3 3.8h9.2c5.1 0 7.7-6.8 4-10.7z"/>
								<path class="s1" d="m1386.8 880.9h63.5c5 0 8.5 5.3 6.8 10.3-2.9 8.5-9.9 19.3-26.3 20.6-14.8 1.1-33.5-7.9-47.5-16.5-6.4-3.9-3.8-14.4 3.5-14.4z"/>
								<path class="s39" d="m1199.8 1112.6c-46.4 0-83.9-37.5-83.9-83.9 0-46.3 37.5-83.8 83.9-83.8 46.4 0 83.8 37.5 83.8 83.8 0 46.4-37.4 83.9-83.8 83.9z"/>
								<path class="s40" d="m1199.8 1096.8c-37.7 0-68.1-30.4-68.1-68.1 0-37.6 30.4-68.1 68.1-68.1 37.6 0 68.1 30.5 68.1 68.1 0 37.7-30.5 68.1-68.1 68.1z"/>
								<path class="s41" d="m1694.4 1112.6c-46.4 0-83.9-37.5-83.9-83.9 0-46.3 37.5-83.8 83.9-83.8 46.3 0 83.8 37.5 83.8 83.8 0 46.4-37.5 83.9-83.8 83.9z"/>
								<path class="s42" d="m1694.4 1096.8c-37.7 0-68.1-30.4-68.1-68.1 0-37.6 30.4-68.1 68.1-68.1 37.6 0 68.1 30.5 68.1 68.1 0 37.7-30.5 68.1-68.1 68.1z"/>
								<path class="s43" d="m1749.9 1053.4q-0.2 0-0.4-0.1c-0.6-0.3-0.9-1-0.7-1.5 3.1-7.3 4.7-15.1 4.7-23.1 0-32.6-26.5-59.1-59.1-59.1-10.2 0-20.1 2.6-28.9 7.5-0.6 0.3-1.3 0.1-1.6-0.4-0.3-0.6-0.1-1.3 0.5-1.6 9.1-5.1 19.4-7.8 30-7.8 33.9 0 61.4 27.5 61.4 61.4 0 8.3-1.6 16.4-4.8 24-0.2 0.4-0.6 0.7-1.1 0.7z"/>
								<path class="s2" d="m1257 1053.4q-0.2 0-0.5-0.1c-0.6-0.3-0.8-1-0.6-1.5 3.1-7.3 4.7-15.1 4.7-23.1 0-32.6-26.6-59.1-59.2-59.1-10.1 0-20.1 2.6-28.8 7.5-0.6 0.3-1.3 0.1-1.6-0.4-0.3-0.6-0.1-1.3 0.4-1.6 9.1-5.1 19.5-7.8 30-7.8 33.9 0 61.5 27.5 61.5 61.4 0 8.3-1.6 16.4-4.8 24-0.2 0.4-0.7 0.7-1.1 0.7z"/>
								<path class="s2" d="m1301.2 1002.9c-0.5 0-1-0.4-1.1-1-7.4-39.1-29.8-64.1-66.4-74.1-27.3-7.5-52.9-3.3-53.1-3.2-0.7 0.1-1.3-0.4-1.4-1-0.1-0.6 0.3-1.2 1-1.3 0.2-0.1 26.2-4.3 54.1 3.3 25.8 7 58.6 25.9 68.1 75.9 0.1 0.6-0.3 1.2-0.9 1.4q-0.1 0-0.3 0z"/>
								<path class="s44" d="m1591.9 1015.7c-0.6 0-1.1-0.5-1.1-1.2-1-30.9 7.3-55.1 24.6-71.9 28.5-27.8 72.3-25.6 72.8-25.6 0.6 0.1 1.1 0.6 1.1 1.3-0.1 0.6-0.6 1.1-1.3 1.1-0.4-0.1-43.2-2.2-71 24.9-16.8 16.3-24.8 39.9-23.9 70.2 0 0.6-0.5 1.1-1.1 1.2q0 0-0.1 0z"/>
								<path class="s2" d="m1192.5 848.2c-0.4 0-0.8-0.2-1-0.6-0.3-0.5-0.1-1.2 0.4-1.6l56.2-31.9c16-9.1 34.1-14.1 52.5-14.4l64.4-1.2c0.7 0 1.2 0.5 1.2 1.2 0 0.6-0.5 1.1-1.1 1.2l-64.4 1.1c-18 0.3-35.8 5.2-51.5 14.1l-56.1 32q-0.3 0.1-0.6 0.1z"/>
							</g>
						</g>
					</g>
				</g>
				<path class="s45" d="m1702.3 1176.5c-97.7 0-176.6-78.9-176.6-176.6 0-97.7 78.9-176.7 176.6-176.7 97.7 0 176.7 79 176.7 176.7 0 97.7-79 176.6-176.7 176.6z"/>
				<g>
					<g>
						<g>
							<g>
								<path class="s46" d="m2061.3 1549.4c13.5 1.1 37 3 55.5 3.8 11.1 0.5 17.5-0.6 21.2-2q0 0.6 0 1.1c-0.1 2-1.7 3.5-3.7 3.6-34.9 2-62.7 0.7-72.6 0.1-2.1-0.1-3.3-2.3-2.2-4.1q0.8-1.3 1.8-2.5z"/>
								<path class="s47" d="m2116.8 1553.2c-18.5-0.8-42-2.7-55.5-3.8 13.3-16.4 55.5-27.3 55.5-27.3h11.9c8.2 11.8 9.4 23 9.3 29.1-3.7 1.4-10.1 2.5-21.2 2z"/>
								<path class="s48" d="m2130.7 1502.6l-1.1 22.1c-0.1 2.4-1.9 4.4-4.3 4.7-2.4 0.3-5.6 0.4-9-0.7-2-0.7-3.6-2.5-4-4.6l-3.8-21.5c0 0 22.2 0 22.2 0z"/>
							</g>
							<g>
								<g>
									<path class="s49" d="m2285.5 1553.1c5.8-0.8 8.5-3.9 9.6-7.2q0 0.1 0 0.1c0.9 3.5-1.1 7-5.1 8.7-4.9 2.1-10.1 2.4-14.2 2.2-4.4-0.1-8.5-2-10.7-4.9 4.4 2.2 10.6 2.4 20.4 1.1z"/>
									<path class="s50" d="m2257.8 1502.5h9.8c15-0.3 24.4 31.2 27.5 43.4-1.1 3.3-3.8 6.3-9.6 7.2-9.8 1.3-16 1.1-20.4-1.1-8.1-10.7-12.1-26.2-14.1-35.3-2.2-10.4 6.8-14.2 6.8-14.2z"/>
								</g>
								<path class="s51" d="m2266.4 1482l5.4 21.7c0.7 2.7-0.6 5.4-3 6.7-3.1 1.5-7.4 3.2-11.3 2.7-1.9-0.2-3.4-1.5-4-3.3l-8.1-22.8z"/>
							</g>
							<path class="s52" d="m2272.9 1488.3c-6.8 6-28.9 6.8-28.9 6.8-79.5-190.9-112-218-112-218 11.4 72 1.8 231.5 1.8 231.5-13.1 5.8-30 0-30 0-1.1-117.9-19.2-220.8-40.6-301.9 53.7-1.2 82.3-19.6 91.6-27 44.8 72.3 118.1 308.6 118.1 308.6z"/>
							<path class="s53" d="m2141.2 960.2c10.1 50.8 6.5 141.6 4.1 183-0.7 11.7 7.5 27.8 14 38.8 1.1 1.8 0.4 4-1.4 4.9-11 5.7-48.2 23.2-91.4 25.4-2.9 0.1-5.5-1.9-6.2-4.6-32.1-119.7-69.3-196.1-69.3-196.1 41.1-65.6 150.2-51.4 150.2-51.4z"/>
							<path class="s3" d="m2126.5 1272.6q0.7 0 1.4-0.4c1.2-0.7 1.5-2.3 0.8-3.5-0.4-0.7-10.7-17.3-31.5-27.4-1.3-0.6-2.8-0.1-3.4 1.2-0.6 1.3-0.1 2.8 1.2 3.4 19.4 9.4 29.3 25.3 29.4 25.4 0.4 0.8 1.3 1.3 2.1 1.3z"/>
							<g>
								<path class="s54" d="m2205 1105.9c-3.3 23.6-12.9 49.4-32.2 76.8l-7.4-6c0 0 8.5-34.4 3.7-73.4 11.9-2.3 26 0.1 35.9 2.6z"/>
								<path class="s55" d="m2129.8 1022.9l11.4-62.7c0 0 75.9 58.1 63.8 145.7-9.9-2.5-24-4.9-35.9-2.6-3.5-28.1-13.9-58.6-39.3-80.4z"/>
							</g>
							<g>
								<path class="s56" d="m1991 1011.6l29.3 63.1c-4.7 38.1-25.2 54.6-47.2 60.9-1.4-17.4-5.8-31.4-9.9-41.1 28.2-29.1 27.8-82.9 27.8-82.9z"/>
								<path class="s57" d="m1963.2 1094.5c4.1 9.7 8.5 23.7 9.9 41.1-58.9 22.9-74.5-21.5-74.5-21.5l10.9-1.9c24.6 2.6 41.7-5.3 53.7-17.7z"/>
							</g>
							<path class="s58" d="m2018 933.7l14.2 52c1.6 5.8 7.9 9 13.5 6.7 6.1-2.4 13.8-5.7 20.4-9.3 7.1-3.8 9.3-12.9 4.8-19.6l-29.4-43.9z"/>
						</g>
						<path class="s59" d="m1871.6 1079.3l362.5 132c15.3 5.5 22.5 22.8 15.8 37.6l-1.1 2.4c-5.9 13-21.3 18.7-34.3 12.7l-352-162.8z"/>
						<path class="s60" d="m1505.8 1000c0 108 89.2 195.5 199.2 195.5 109.9 0 199.1-87.5 199.1-195.5 0-108-89.2-195.6-199.1-195.6-110 0-199.2 87.6-199.2 195.6zm29.3 0c0-92.2 76-166.9 169.9-166.9 93.8 0 169.9 74.7 169.9 166.9 0 92.1-76.1 166.8-169.9 166.8-93.9 0-169.9-74.7-169.9-166.8z"/>
						<g>
							<path class="s1" d="m1888.8 1024.2c-0.7-0.1-1.3-0.8-1.2-1.5 0.6-4.6 1-9.2 1.3-13.8 0-0.8 0.6-1.4 1.4-1.3 0.7 0 1.3 0.7 1.2 1.4-0.2 4.7-0.6 9.4-1.2 14-0.1 0.7-0.7 1.2-1.3 1.2q-0.1 0-0.2 0zm-2.5-55.8c-2.2-12.4-5.8-24.6-10.6-36.2q0 0 0 0c-28.3-68.7-95.3-113-170.7-113-35.2 0-69.4 9.8-98.9 28.3-0.7 0.3-1.5 0.2-1.9-0.5-0.4-0.6-0.2-1.4 0.5-1.8 29.9-18.8 64.6-28.7 100.3-28.7 76.5 0 144.5 45 173.2 114.7 4.8 11.8 8.5 24.2 10.7 36.7 0.1 0.8-0.3 1.5-1.1 1.6q-0.1 0-0.2 0c-0.6 0-1.2-0.4-1.3-1.1z"/>
						</g>
						<path class="s61" d="m2168.4 1175.7l-34.2-2.8-14.9 13.7c0 0 3.5 4.8 14.5 2 11-2.8 26-3.4 26-3.4 0 0 15.2 6.8 15.4-6z"/>
						<path class="s62" d="m1903 1122.3c-3 2.3-13.2-2.6-19.4-5.9-3-1.6-4.5-5.2-3.4-8.5 1.5-4.7 4-10.8 7-11.5 5.1-1.3 28 16.3 15.8 25.9z"/>
						<path class="s1" d="m2227 1259q0.2 0 0.4-0.1c14.2-4.9 17.5-13.3 17.8-19.4 0.3-9-5.3-17.4-14.1-20.8l-43.5-17c-0.7-0.3-1.5 0.1-1.8 0.8-0.2 0.7 0.1 1.4 0.8 1.7l43.5 17c7.8 3 12.7 10.3 12.4 18.1-0.4 7.8-5.7 13.5-15.9 17.1-0.7 0.2-1.1 1-0.9 1.7 0.2 0.5 0.7 0.9 1.3 0.9z"/>
						<path class="s1" d="m2173.7 1199.1c0.5 0 1-0.4 1.2-0.9 0.3-0.7-0.1-1.5-0.8-1.7l-5.6-2.2c-0.7-0.3-1.5 0-1.7 0.7-0.3 0.7 0 1.5 0.7 1.8l5.7 2.2q0.2 0.1 0.5 0.1z"/>
						<g>
							<path class="s63" d="m1990.1 903.3c0 0 2.1 30.7 8.1 44.3 6 13.6 7.6 23.6 24 18.7 16.3-5 25-19 25.1-35.7 0 0 0.4-25.8-6.3-32.9-6.6-7.1-50.9 5.6-50.9 5.6z"/>
							<path class="s64" d="m2039.6 923.9c0 0-5.8 6.5-7.4-2.1-1.7-8.5-1.3-19.9-13-15.7-11.8 4.1-58.3 18.6-50.3-25.6 0 0 4.5-10.9 18.7 0.4 0 0 12.7 5.6 28.3-3.5 15.5-9.1 34.6-4 39 11.6 0 0 33.6 23.3-6.1 46.8 0 0-5.4-0.7-9.2-11.9z"/>
							<path class="s65" d="m2038.1 926.4c0 0-4.1-18.3 5.3-17.3 9.4 0.9 5.5 19.9 0.2 23.4z"/>
							<g>
								<path class="s1" d="m1981.9 907.1q-0.3 0.2-0.7 0.1c-11.9-4.6-6.7-23.2-6.4-24 0.1-0.5 0.6-0.8 1.1-0.6 0.5 0.1 0.8 0.6 0.6 1.1 0 0.2-5 17.8 5.3 21.7 0.5 0.2 0.7 0.8 0.6 1.2q-0.2 0.4-0.5 0.5z"/>
							</g>
						</g>
					</g>
				</g>
			</g>
			<g>
				<g>
					<g>
						<path class="s66" d="m715.6 1558.4c-13.5 1.1-37 3-55.4 3.8-11.2 0.5-17.6-0.5-21.2-2q0 0.6 0 1.1c0.1 2 1.7 3.5 3.6 3.7 35 1.9 62.7 0.6 72.6 0 2.1-0.1 3.3-2.3 2.2-4.1q-0.8-1.3-1.8-2.5z"/>
						<path class="s67" d="m660.2 1562.3c18.4-0.9 41.9-2.8 55.4-3.9-13.3-16.3-55.4-27.3-55.4-27.3h-12c-8.1 11.8-9.3 23-9.2 29.1 3.6 1.5 10 2.5 21.2 2.1z"/>
						<path class="s68" d="m646.2 1511.7l1.2 22c0.1 2.4 1.9 4.4 4.3 4.7 2.3 0.4 5.5 0.4 8.9-0.7 2.1-0.7 3.6-2.4 4-4.6l3.9-21.4z"/>
					</g>
					<g>
						<g>
							<path class="s69" d="m491.6 1562.1c-5.9-0.8-8.5-3.9-9.6-7.1q0 0-0.1 0.1c-0.8 3.4 1.2 6.9 5.2 8.6 4.8 2.1 10.1 2.4 14.2 2.3 4.4-0.2 8.4-2 10.6-5h0.1c-4.5 2.2-10.6 2.4-20.4 1.1z"/>
							<path class="s70" d="m519.2 1511.5h-9.8c-15-0.3-24.4 31.3-27.4 43.5 1.1 3.2 3.7 6.3 9.6 7.1 9.8 1.3 15.9 1.1 20.4-1.1 8-10.6 12-26.2 14-35.3 2.2-10.3-6.8-14.2-6.8-14.2z"/>
						</g>
						<path class="s71" d="m510.6 1491l-5.4 21.7c-0.7 2.7 0.6 5.4 3.1 6.7 3 1.6 7.3 3.2 11.3 2.7 1.8-0.2 3.3-1.5 4-3.2l8-22.9z"/>
					</g>
					<path class="s72" d="m504.1 1497.3c6.8 6 28.9 6.8 28.9 6.8 79.5-190.8 112-217.9 112-217.9-11.5 72.1-1.9 231.5-1.9 231.5 13.2 5.8 30.1 0 30.1 0 1-117.9 19.2-220.7 40.6-301.8-53.8-1.2-82.3-19.6-91.7-26.9-44.7 72.2-118 308.3-118 308.3z"/>
					<path class="s73" d="m635.8 969.6c-10.2 50.7-6.5 141.5-4.1 182.9 0.6 11.6-7.5 27.7-14.1 38.8-1 1.7-0.4 3.9 1.4 4.8 11 5.7 48.3 23.2 91.4 25.4 2.9 0.1 5.5-1.9 6.2-4.6 32.1-119.6 69.3-196 69.3-196-41.1-65.6-150.1-51.3-150.1-51.3z"/>
					<path class="s74" d="m650.4 1281.7q-0.7 0-1.3-0.3c-1.2-0.8-1.6-2.3-0.9-3.5 0.5-0.7 10.8-17.4 31.6-27.4 1.2-0.6 2.7-0.1 3.4 1.2 0.6 1.3 0 2.8-1.2 3.4-19.4 9.3-29.3 25.3-29.4 25.4-0.5 0.8-1.3 1.2-2.2 1.2z"/>
					<g>
						<path class="s75" d="m572 1115.1c3.3 23.7 12.9 49.4 32.2 76.8l18.1-14.4c0 0-19.2-25.9-14.4-65-11.9-2.3-26 0.1-35.9 2.6z"/>
						<path class="s76" d="m647.1 1032.1l-11.3-62.5c0 0-75.9 58-63.8 145.5 9.9-2.5 24-4.9 35.9-2.6 3.5-28.1 13.8-58.6 39.2-80.4z"/>
					</g>
					<g>
						<path class="s77" d="m785.9 1020.9l-29.3 63.1c4.7 38.1 25.2 54.5 47.2 60.8 1.4-17.3 5.8-31.3 9.9-41-28.2-29.1-27.8-82.9-27.8-82.9z"/>
						<path class="s78" d="m813.7 1103.8c-4.1 9.7-8.5 23.7-9.9 41 58.9 22.9 74.4-21.4 74.4-21.4l-10.8-1.9c-24.6 2.6-41.8-5.4-53.7-17.7z"/>
					</g>
					<path class="s79" d="m758.9 943l-14.2 52c-1.6 5.8-7.9 9-13.5 6.7-6.1-2.4-13.8-5.7-20.4-9.3-7.1-3.8-9.3-12.9-4.8-19.6l29.4-43.8z"/>
				</g>
				<g>
					<path class="s80" d="m774.5 893.8c0.4 0.9 10.7 65 10.7 65l-36.7 5.1-18.8-59.3c0 0 36.8-25.1 44.8-10.8z"/>
					<path class="s81" d="m742.2 914.7l7.5 31.9q0.1 0.7 0.4 1.2c1.3 2.3 6.1 9.7 13.4 4.3 6.7-4.9 12.8-9.3 18.1-9.6 2.3-0.2 4.4 1.5 4.8 3.8 0.9 5.8 2.8 19 2.7 30.7-0.1 2.3-1.9 4.3-4.3 4.5-7.1 0.5-22.1 1.2-34.4-1-1.6-0.3-3-1.5-3.5-3.1-2.6-7.8-10.5-31.5-13.8-37.7-3-5.9-11.9-6.8-15.7-6.8-1.2-0.1-2.4-0.6-3.2-1.5-3-3.3-8.4-11.3 1.3-19.1 2.1-1.6 2.4-4.6 0.7-6.5-3.4-4-6.7-10.7 0.4-17.8 7.2-7.2 15.5-5 20.5-2.5 2 0.9 4.3 0.3 5.7-1.5 0.7-1 2-1.7 3.9-1.3 2.6 0.5 5-1.4 5.3-4.1 0.5-5 3-11.2 12.1-13 16.1-3.1 24.2 13 23.9 24.4-0.3 11.3-18 13.7-28 11.8-7.7-1.4-14.2 5.6-16.9 9-0.9 1.1-1.2 2.5-0.9 3.9z"/>
					<path class="s82" d="m736 951.3c0 0-0.4-19.8-8.4-21.7-8-1.8-16.6 3.9-9.8 15.8 8.5 14.7 18.2 5.9 18.2 5.9z"/>
				</g>
				<g>
					<g>
						<path class="s83" d="m471.3 1299.6l30.5-32.2c3-3.2 3.5-8.1 1.1-11.9l-32.8-51.5c-2.4-3.7-7-5.4-11.2-4l-40.2 13-5.5-17.2 40.1-13c12.1-3.9 25.2 0.9 32 11.5l32.8 51.5c6.9 10.8 5.5 24.8-3.2 34.1l-30.5 32.1z"/>
					</g>
					<g>
						<path class="s84" d="m267.7 1532l210.8-180.1c17.5-14.9 21.5-40.1 9.6-59.7-16.6-27.1-39.9-65-56.9-92.6-12.6-20.4-38.7-27.8-60.2-17.3l-249.9 123.1c-11.9 5.8-20.8 16.5-24.3 29.2-3.6 12.8-1.5 26.5 5.6 37.7l95.8 149.4c7.3 11.3 19.1 19 32.4 20.9 13.3 2 26.8-1.9 37.1-10.6z"/>
						<path class="s85" d="m266.1 1522.3l199.9-170.1c16.6-14 20.6-37.7 9.4-55.9-15.5-25.3-37.1-60.8-53.1-86.5-11.7-19-36.2-25.9-56.6-15.8l-236.5 116.8c-11.2 5.6-19.7 15.7-23.1 27.6-3.4 12-1.6 24.9 5.1 35.3l89.4 139.4c6.8 10.6 17.9 17.7 30.4 19.5 12.6 1.7 25.4-2 35.1-10.3z"/>
						<g>
							<path class="s86" d="m327.5 1377.2l-37.8-59.4c-9.4-14.7-30.1-20.8-44.8-11.4l-15 9.5c-5.1 3.3-4 10.9-0.8 16l60.1 94.3c3.3 5 8.3 7.1 13.4 3.8l15-9.6c14.7-9.3 19.3-28.5 9.9-43.2z"/>
							<path class="s87" d="m270.2 1438.3l-60.1-94.3c-3.2-5.1-11.7-8-16.8-4.8l-11.4 7.3c-14.7 9.4-19.5 31.7-10.1 46.5l37.8 59.3c9.4 14.8 30.3 17.7 45 8.3l11.4-7.3c5.1-3.2 7.4-9.9 4.2-15z"/>
						</g>
						<path class="s88" d="m396.3 1338.2c-9.5 6-22 3.3-28.1-6.2l-24.2-38c-6-9.5-3.2-22 6.2-28 9.5-6.1 22-3.3 28 6.2l24.3 38c6 9.5 3.2 22-6.2 28z"/>
					</g>
				</g>
				<g>
					<g>
						<g>
							<path class="s2" d="m1118.9 1001.1l-42.2-11.2c-2.7-0.7-5.5-0.8-8.2 0l-261 78.1 12.4 89.9 50.4-15c2.1-0.7 3.7-2.7 4.5-4.7l9.8-26.7c0.3-0.8 1-1.6 1.9-1.8 0.9-0.3 1.8-0.1 2.5 0.5l20.8 17.3c1.7 1.4 4.3 2.3 6.5 1.6l33.7-10.1c2.3-0.6 3.9-2.8 4.6-4.9l7.3-23.8c0.4-1 1.2-1.8 2.2-2 1-0.3 2 0 2.7 0.8l13.6 16.2c1.8 2 4.7 3.2 7.4 2.5l24.8-7.5c2.8-0.8 4.7-3.7 4.8-6.6l0.9-22.1c0-1.1 0.7-2.2 1.7-2.6 1-0.4 2.2-0.3 3 0.5l19.3 18c1.8 1.6 4.4 2.6 6.8 1.9l26-7.8c5-1.4 9.1-5.1 11.7-9.5l36.2-60.8c1.1-1.8 1.3-4.1 0.5-6.1-0.8-1.9-2.5-3.5-4.6-4.1z"/>
							<path class="s89" d="m1086.8 1020.2c1.1 3.5-1.1 7-4.8 8.1l-282.8 84.5c-3.6 1.1-7.4-0.6-8.4-4.1-1.1-3.5 1.1-7.1 4.8-8.2l282.8-84.5c3.6-1.1 7.4 0.6 8.4 4.2z"/>
						</g>
						<path class="s90" d="m783.1 1026.4l-133.7 21.1c-10.9 1.7-20.3 8.8-24.9 18.9l-40.2 87.7c-7 15.4-2.2 33.8 11.7 43.6l81.5 58.2c10.8 7.7 24.9 8.8 36.7 2.8l121.1-61.2c9.7-4.9 14.6-16 11.5-26.4l-38.6-129.1c-3.3-10.7-14-17.4-25.1-15.6zm-106.1 194.3c-0.9 0.7-2.3 0.7-3.3 0l-56-39.8c-6.7-4.9-9.4-13.7-6.3-21.4l23.4-58.9c0.4-1.1 1.5-1.8 2.7-1.7 1.2 0 2.2 0.8 2.6 1.9l37.9 116.7c0.4 1.2 0 2.5-1 3.2z"/>
					</g>
					<g>
						<path class="s1" d="m634.9 1076q-0.5 0-0.9-0.2c-0.9-0.5-1.3-1.7-0.8-2.6l2.4-4.5c2.3-4.4 6.7-7.6 11.7-8.4l137.5-21.9c1.1-0.1 2 0.6 2.2 1.6 0.1 1-0.6 2-1.6 2.2l-137.5 21.8c-3.8 0.6-7.2 3-9 6.5l-2.4 4.5c-0.3 0.6-1 1-1.6 1z"/>
					</g>
				</g>
				<path class="s91" d="m873.9 1131.5c2.9 2.3 13.1-2.5 19.3-5.9 3-1.6 4.5-5.1 3.5-8.4-1.5-4.7-4-10.8-7.1-11.6-5.1-1.2-27.9 16.4-15.7 25.9z"/>
				<g>
					<path class="s2" d="m483.7 1191.9c0.5-1 1-1.9 1.5-2.9 8.1-14.2 22.1-26.9 39.6-35.8 22.3-11.3 46.2-14.7 63.7-8.3l9.6-20.8c-23.6-8.6-55.4-5.3-83.5 9-21.4 10.9-38.8 26.8-49 44.8-0.7 1.2-1.2 2.4-1.8 3.5 12.4 0.4 18.2 7.8 19.9 10.5z"/>
					<path class="s2" d="m621.8 1133.3l-9.7 25.3c5.6 11-2.3 26.9-12.7 41.6-8.3 11.6-21 22.2-35.7 29.6-17.5 8.9-36 12.8-52.2 10.9-14.6-1.7-25.2-7.9-30-17.3q-0.9-1.9-1.6-3.9 0-0.1 0-0.1c-4.8-7.5-7.8-14.2-12.4-18.1-3.1-2.6-8.2-1.8-10.3-1-2.2 11.8-0.9 23.2 4.2 33.3 8.3 16.4 25.2 26.8 47.4 29.4q5.4 0.7 10.9 0.7c17.6 0 36.5-4.8 54.2-13.8 18.1-9.2 33.3-21.9 43.8-36.7 15.5-21.7 24.6-58.2 4.1-79.9z"/>
				</g>
				<path class="s92" d="m637.2 1189.1l31.4 14.2 6.3 19.1c0 0-5.4 2.5-13.6-5.2-8.3-7.7-21.1-15.6-21.1-15.6 0 0-16.6-1.4-10.6-12.6z"/>
				<g>
					<path class="s1" d="m779 895.1q-0.1 0-0.2 0c-0.5-0.1-0.8-0.6-0.7-1.1 0.1-0.2 3.2-14.1-5-20.2-0.4-0.3-0.4-0.9-0.1-1.3 0.3-0.4 0.9-0.5 1.3-0.2 9.1 6.9 5.8 21.5 5.6 22.1-0.1 0.4-0.4 0.7-0.9 0.7z"/>
				</g>
			</g>
			<g>
				<g>
					<path class="s2" d="m477.4 1052.1l-3-5.7c-0.4-0.7-0.1-1.6 0.6-1.9 0.7-0.4 1.6-0.1 2 0.6l3 5.6v0.1c0.4 0.7 0.1 1.6-0.6 2-0.7 0.3-1.6 0.1-2-0.7z"/>
					<path class="s2" d="m468.4 1032.5l-2-6.2c-0.2-0.7 0.2-1.5 1-1.8 0.7-0.3 1.6 0.2 1.8 0.9v0.1l2 6v0.1c0.3 0.8-0.2 1.6-0.9 1.9-0.8 0.2-1.6-0.2-1.9-1z"/>
					<path class="s2" d="m463.2 1011.5q-0.4-3.2-0.6-6.5c-0.1-0.8 0.6-1.5 1.4-1.5 0.8-0.1 1.5 0.5 1.5 1.3q0.2 3.2 0.7 6.3c0.1 0.8-0.5 1.6-1.3 1.7-0.8 0.1-1.6-0.5-1.7-1.3z"/>
					<path class="s2" d="m463 989.8q0.4-3.2 1-6.4c0.2-0.8 1-1.4 1.8-1.2 0.8 0.2 1.3 1 1.2 1.8q-0.7 3.1-1 6.2c-0.1 0.8-0.9 1.4-1.7 1.3-0.8-0.1-1.4-0.9-1.3-1.7z"/>
					<path class="s2" d="m468.4 968.8q1.2-3 2.6-6c0.4-0.7 1.3-1 2-0.7 0.8 0.4 1.1 1.3 0.7 2q-1.4 2.9-2.5 5.8c-0.3 0.8-1.2 1.1-2 0.8-0.8-0.3-1.1-1.1-0.8-1.9z"/>
					<path class="s2" d="m478.7 949.7l3.9-5.2c0.5-0.6 1.5-0.8 2.1-0.3 0.7 0.5 0.8 1.5 0.3 2.1v0.1l-3.8 5.1-0.1 0.1c-0.5 0.6-1.4 0.8-2.1 0.3-0.6-0.5-0.8-1.5-0.3-2.2z"/>
					<path class="s2" d="m492.8 933.3l4.7-4.4c0.6-0.6 1.6-0.6 2.2 0.1 0.5 0.6 0.5 1.5-0.1 2.1l-0.1 0.1-4.6 4.3h-0.1c-0.6 0.6-1.5 0.6-2.1 0-0.6-0.7-0.6-1.6 0.1-2.2z"/>
					<path class="s2" d="m509.3 919.4l5.3-3.7c0.7-0.5 1.7-0.3 2.1 0.4 0.5 0.7 0.4 1.7-0.3 2.2h-0.1l-5.2 3.6v0.1c-0.7 0.4-1.7 0.3-2.2-0.4-0.5-0.7-0.3-1.7 0.4-2.2z"/>
					<path class="s2" d="m527.5 907.9l5.6-3.1c0.8-0.4 1.7-0.1 2.2 0.6 0.4 0.8 0.1 1.7-0.7 2.1l-5.6 3.1h-0.1c-0.7 0.4-1.7 0.1-2.1-0.6-0.4-0.8-0.1-1.7 0.7-2.1z"/>
					<path class="s2" d="m546.7 898.3l6-2.6c0.8-0.3 1.7 0.1 2 0.9 0.4 0.8 0 1.7-0.8 2l-5.9 2.5v0.1c-0.8 0.3-1.8-0.1-2.1-0.9-0.3-0.8 0-1.7 0.8-2z"/>
					<path class="s2" d="m566.7 890.4l6.1-2c0.9-0.3 1.8 0.1 2.1 1 0.2 0.8-0.2 1.7-1 2h-0.1l-6 2h-0.1c-0.8 0.3-1.7-0.2-2-1-0.2-0.8 0.2-1.7 1-2z"/>
					<path class="s2" d="m587.3 884.1l6.2-1.6c0.9-0.3 1.7 0.3 1.9 1.1 0.3 0.9-0.2 1.7-1.1 2l-6.2 1.6c-0.9 0.2-1.8-0.3-2-1.2-0.2-0.8 0.3-1.7 1.2-1.9z"/>
					<path class="s2" d="m608.2 879.1l6.3-1.2c0.9-0.2 1.7 0.4 1.9 1.3 0.1 0.9-0.4 1.7-1.3 1.9l-6.3 1.2c-0.9 0.2-1.7-0.4-1.9-1.3-0.2-0.8 0.4-1.7 1.3-1.9z"/>
					<path class="s2" d="m629.3 875.5l6.4-0.9c0.9-0.1 1.7 0.5 1.8 1.4 0.1 0.9-0.5 1.7-1.4 1.8l-6.3 0.9h-0.1c-0.8 0.1-1.7-0.5-1.8-1.4-0.1-0.9 0.5-1.7 1.4-1.8z"/>
					<path class="s2" d="m650.6 872.9l6.4-0.5c0.9-0.1 1.7 0.6 1.8 1.5 0.1 0.9-0.6 1.7-1.5 1.8l-6.4 0.5c-0.9 0.1-1.7-0.6-1.8-1.5-0.1-0.9 0.6-1.7 1.5-1.8z"/>
					<path class="s2" d="m672 871.6l6.5-0.2c0.9-0.1 1.6 0.6 1.7 1.5 0 1-0.7 1.7-1.6 1.8h-0.1l-6.3 0.1h-0.1c-0.9 0.1-1.6-0.6-1.7-1.5 0-1 0.7-1.7 1.6-1.7z"/>
					<path class="s2" d="m693.5 871.2l6.4 0.2c0.9 0 1.7 0.7 1.7 1.6-0.1 1-0.8 1.7-1.7 1.7h-0.1l-6.4-0.1c-0.9-0.1-1.6-0.8-1.6-1.7 0-0.9 0.8-1.7 1.7-1.7z"/>
					<path class="s2" d="m714.9 872l6.4 0.4c1 0.1 1.7 0.9 1.6 1.8-0.1 0.9-0.8 1.6-1.8 1.6l-6.4-0.5c-0.9 0-1.6-0.8-1.6-1.8 0.1-0.9 0.9-1.6 1.8-1.5z"/>
					<path class="s2" d="m736.3 873.7l6.4 0.7c0.9 0.1 1.6 0.9 1.5 1.8-0.1 1-0.9 1.6-1.9 1.6v-0.1l-6.3-0.6h-0.1c-0.9-0.1-1.6-0.9-1.5-1.9 0.1-0.9 1-1.6 1.9-1.5z"/>
					<path class="s2" d="m757.6 876.1l6.4 0.9c0.9 0.1 1.5 0.9 1.4 1.9-0.1 0.9-1 1.6-1.9 1.4l-6.3-0.8h-0.1c-0.9-0.1-1.5-1-1.4-1.9 0.1-0.9 1-1.6 1.9-1.5z"/>
					<path class="s2" d="m778.8 879.1l6.3 1c1 0.1 1.6 1 1.5 1.9-0.2 1-1.1 1.6-2 1.5l-6.3-1c-1-0.2-1.6-1-1.5-2 0.2-0.9 1.1-1.6 2-1.4z"/>
					<path class="s2" d="m799.9 882.6l6.3 1.1c1 0.2 1.6 1.1 1.4 2-0.1 1-1 1.6-2 1.4l-6.3-1.1c-0.9-0.2-1.5-1.1-1.4-2 0.2-1 1.1-1.6 2-1.4z"/>
					<path class="s2" d="m821 886.6l6.3 1.3c0.9 0.2 1.5 1.1 1.3 2-0.2 0.9-1.1 1.6-2 1.4h-0.1l-6.2-1.3c-1-0.2-1.6-1.1-1.4-2.1 0.2-0.9 1.1-1.5 2.1-1.3z"/>
					<path class="s2" d="m841.9 891l6.3 1.5c0.9 0.2 1.5 1.1 1.3 2.1-0.2 0.9-1.2 1.5-2.1 1.3l-6.3-1.5c-0.9-0.2-1.5-1.1-1.3-2.1 0.2-0.9 1.2-1.5 2.1-1.3z"/>
					<path class="s2" d="m862.7 896l6.3 1.5c0.9 0.3 1.5 1.2 1.3 2.2-0.3 0.9-1.2 1.5-2.2 1.2l-6.2-1.5c-0.9-0.3-1.5-1.2-1.3-2.2 0.3-0.9 1.2-1.5 2.1-1.2z"/>
					<path class="s2" d="m883.5 901.3l6.2 1.7c0.9 0.3 1.5 1.3 1.2 2.2-0.2 0.9-1.2 1.5-2.2 1.2l-6.1-1.7c-1-0.2-1.5-1.2-1.3-2.1 0.3-1 1.2-1.5 2.2-1.3z"/>
					<path class="s2" d="m904.1 907.1l6.2 1.8c0.9 0.3 1.4 1.3 1.2 2.2-0.3 1-1.3 1.5-2.2 1.2h-0.1l-6.1-1.8c-0.9-0.3-1.5-1.2-1.2-2.2 0.3-0.9 1.3-1.5 2.2-1.2z"/>
					<path class="s2" d="m924.6 913.3l6.1 1.9c1 0.3 1.5 1.3 1.2 2.2-0.3 1-1.3 1.5-2.2 1.2h-0.1l-6.1-1.9c-0.9-0.3-1.4-1.3-1.1-2.3 0.2-0.9 1.3-1.4 2.2-1.1z"/>
					<path class="s2" d="m945 919.8l6.1 2c0.9 0.3 1.4 1.3 1.1 2.3-0.3 0.9-1.3 1.4-2.3 1.1l-6-2c-1-0.3-1.5-1.3-1.2-2.3 0.3-0.9 1.3-1.4 2.3-1.1z"/>
					<path class="s2" d="m965.3 926.6l6 2.1c1 0.4 1.5 1.4 1.1 2.3-0.3 1-1.3 1.5-2.3 1.2l-6-2.2c-1-0.3-1.5-1.3-1.1-2.3 0.3-0.9 1.3-1.4 2.3-1.1z"/>
					<path class="s2" d="m985.4 933.8l6.1 2.2c0.9 0.3 1.4 1.4 1.1 2.3-0.4 1-1.4 1.5-2.4 1.1l-6-2.2c-0.9-0.3-1.4-1.4-1.1-2.3 0.3-1 1.4-1.5 2.3-1.1z"/>
					<path class="s2" d="m1005.5 941.2l6 2.3c0.9 0.4 1.4 1.4 1.1 2.4-0.4 0.9-1.5 1.4-2.4 1l-6-2.3c-0.9-0.3-1.4-1.4-1.1-2.3 0.4-1 1.5-1.4 2.4-1.1z"/>
					<path class="s2" d="m1025.5 948.9l5.9 2.4c1 0.3 1.5 1.4 1.1 2.4-0.4 0.9-1.5 1.4-2.4 1l-6-2.4c-0.9-0.3-1.4-1.4-1-2.3 0.4-1 1.4-1.5 2.4-1.1z"/>
					<path class="s2" d="m1045.3 956.8l6 2.5c0.9 0.4 1.4 1.4 1 2.4-0.4 0.9-1.5 1.4-2.4 1l-5.9-2.4c-1-0.4-1.5-1.5-1.1-2.4 0.4-1 1.5-1.4 2.4-1.1z"/>
					<path class="s2" d="m1065.1 965l5.9 2.5c1 0.4 1.4 1.5 1 2.4-0.4 1-1.4 1.4-2.4 1l-5.9-2.5c-1-0.4-1.4-1.5-1-2.4 0.4-1 1.5-1.4 2.4-1z"/>
					<path class="s2" d="m1084.8 973.3l5.9 2.5c1 0.5 1.4 1.6 1 2.5-0.4 1-1.5 1.4-2.4 1h-0.1l-5.8-2.5c-1-0.5-1.4-1.6-1-2.5 0.4-1 1.5-1.4 2.4-1z"/>
					<path class="s2" d="m1104.5 981.8l5.8 2.6c1 0.4 1.4 1.5 1 2.5-0.4 0.9-1.5 1.4-2.5 0.9l-5.8-2.5c-1-0.5-1.4-1.6-1-2.5 0.4-1 1.5-1.4 2.5-1z"/>
					<path class="s2" d="m1124 990.4l5.9 2.6c1 0.5 1.4 1.6 1 2.6-0.5 0.9-1.6 1.3-2.5 0.9h-0.1l-5.8-2.6c-1-0.4-1.4-1.6-1-2.5 0.5-1 1.6-1.4 2.5-1z"/>
					<path class="s2" d="m1143.6 999.2l5.8 2.6c1 0.5 1.4 1.6 0.9 2.5-0.4 1-1.5 1.4-2.5 1l-5.8-2.6c-1-0.5-1.4-1.6-1-2.6 0.5-0.9 1.6-1.4 2.6-0.9z"/>
					<path class="s2" d="m1163 1008l5.9 2.7c0.9 0.4 1.3 1.6 0.9 2.5-0.4 1-1.6 1.4-2.5 1l-5.9-2.7c-0.9-0.4-1.4-1.6-0.9-2.5 0.4-1 1.6-1.4 2.5-1z"/>
					<path class="s2" d="m1182.5 1016.9l5.8 2.7c0.9 0.5 1.4 1.6 0.9 2.6-0.4 1-1.6 1.4-2.5 0.9l-5.9-2.7c-0.9-0.4-1.3-1.6-0.9-2.5 0.4-1 1.6-1.4 2.6-1z"/>
					<path class="s2" d="m1201.9 1025.9l5.8 2.7c1 0.4 1.4 1.6 0.9 2.6-0.4 0.9-1.6 1.4-2.5 0.9l-5.9-2.7c-0.9-0.4-1.4-1.6-0.9-2.6 0.4-0.9 1.6-1.4 2.6-0.9z"/>
					<path class="s2" d="m1221.3 1034.9l5.8 2.7c1 0.4 1.4 1.6 0.9 2.5-0.4 1-1.6 1.4-2.5 1h-0.1l-5.8-2.7c-0.9-0.5-1.4-1.6-0.9-2.6 0.4-1 1.6-1.4 2.6-0.9z"/>
					<path class="s2" d="m1240.7 1043.8l5.8 2.7c1 0.5 1.4 1.6 1 2.6-0.5 1-1.7 1.4-2.6 1l-5.9-2.7c-1-0.5-1.4-1.6-0.9-2.6 0.4-1 1.6-1.4 2.6-1z"/>
					<path class="s2" d="m1260.1 1052.7l5.8 2.7c1 0.5 1.4 1.6 1 2.6-0.5 1-1.6 1.4-2.6 1l-5.9-2.7c-0.9-0.4-1.4-1.6-0.9-2.6 0.4-1 1.6-1.4 2.6-1z"/>
					<path class="s2" d="m1279.5 1061.6l5.9 2.6c1 0.5 1.4 1.7 1 2.7-0.5 1-1.7 1.4-2.7 1l-5.8-2.7c-1-0.5-1.4-1.6-1-2.6 0.5-1 1.6-1.5 2.6-1z"/>
					<path class="s2" d="m1299 1070.4l5.9 2.6c1 0.4 1.4 1.6 1 2.6-0.5 1-1.6 1.5-2.7 1l-5.8-2.6c-1-0.4-1.5-1.6-1-2.6 0.4-1 1.6-1.5 2.6-1z"/>
					<path class="s2" d="m1318.5 1079l5.9 2.6c1 0.4 1.5 1.6 1 2.6-0.4 1.1-1.6 1.5-2.6 1.1l-5.9-2.6c-1-0.5-1.4-1.6-1-2.6 0.4-1.1 1.6-1.5 2.6-1.1z"/>
					<path class="s2" d="m1338.1 1087.6l5.9 2.5c1 0.4 1.5 1.6 1.1 2.6-0.5 1.1-1.6 1.5-2.7 1.1l-5.9-2.5c-1-0.5-1.5-1.7-1-2.7 0.4-1 1.6-1.5 2.6-1z"/>
					<path class="s2" d="m1357.8 1095.9l5.9 2.5c1 0.4 1.5 1.6 1.1 2.7-0.5 1-1.6 1.5-2.7 1.1v-0.1l-5.9-2.4c-1-0.5-1.5-1.7-1.1-2.7 0.5-1 1.6-1.5 2.7-1.1z"/>
					<path class="s2" d="m1377.5 1104.1l5.9 2.4c1.1 0.5 1.6 1.6 1.2 2.7-0.5 1-1.7 1.5-2.7 1.1l-6-2.4c-1-0.4-1.5-1.6-1.1-2.7 0.5-1 1.7-1.5 2.7-1.1z"/>
					<path class="s2" d="m1397.3 1112.1l6 2.4c1 0.4 1.5 1.6 1.1 2.6-0.4 1.1-1.6 1.6-2.6 1.2l-6-2.4c-1.1-0.4-1.6-1.6-1.2-2.6 0.5-1.1 1.6-1.6 2.7-1.2z"/>
					<path class="s2" d="m1417.2 1119.9l6 2.2c1 0.4 1.6 1.6 1.2 2.7-0.4 1.1-1.6 1.6-2.7 1.2l-6-2.3c-1-0.4-1.6-1.6-1.2-2.7 0.4-1 1.6-1.5 2.7-1.1z"/>
					<path class="s2" d="m1437.2 1127.4l6 2.2c1.1 0.3 1.6 1.5 1.2 2.6-0.4 1.1-1.5 1.6-2.6 1.3l-6.1-2.3c-1-0.4-1.6-1.5-1.2-2.6 0.4-1.1 1.6-1.6 2.7-1.2z"/>
					<path class="s2" d="m1457.3 1134.6l6 2.1c1.1 0.4 1.7 1.5 1.3 2.6-0.4 1.1-1.6 1.7-2.6 1.3h-0.1l-6-2.1c-1.1-0.4-1.7-1.6-1.3-2.6 0.4-1.1 1.6-1.7 2.7-1.3z"/>
					<path class="s2" d="m1477.4 1141.5l6.1 2c1.1 0.4 1.7 1.5 1.4 2.6-0.4 1.1-1.6 1.7-2.7 1.4l-6.1-2c-1.1-0.4-1.7-1.6-1.3-2.7 0.4-1.1 1.6-1.7 2.6-1.3z"/>
					<path class="s2" d="m1497.7 1148.1l6.2 1.9c1.1 0.3 1.7 1.5 1.4 2.6-0.4 1.1-1.6 1.8-2.7 1.4l-6.1-1.9c-1.1-0.4-1.7-1.5-1.4-2.6 0.4-1.2 1.5-1.8 2.6-1.4z"/>
					<path class="s2" d="m1518.2 1154.3l6.1 1.8c1.1 0.3 1.8 1.5 1.4 2.6-0.3 1.1-1.5 1.8-2.6 1.5l-6.1-1.8c-1.2-0.4-1.8-1.5-1.5-2.7 0.4-1.1 1.5-1.7 2.6-1.4z"/>
					<path class="s2" d="m1538.7 1160.2l6.1 1.6h0.1c1.1 0.3 1.8 1.5 1.5 2.6-0.4 1.2-1.5 1.8-2.7 1.5l-6.2-1.7c-1.1-0.3-1.8-1.4-1.4-2.6 0.3-1.1 1.4-1.8 2.6-1.5z"/>
					<path class="s2" d="m1559.3 1165.6l6.2 1.5v0.1c1.2 0.2 1.9 1.4 1.6 2.5-0.3 1.2-1.5 1.9-2.6 1.6l-6.3-1.6c-1.1-0.3-1.8-1.4-1.5-2.6 0.3-1.1 1.4-1.8 2.6-1.5z"/>
					<path class="s2" d="m1580 1170.6l6.3 1.4c1.1 0.3 1.9 1.4 1.6 2.6-0.3 1.2-1.4 1.9-2.6 1.6l-6.2-1.4c-1.2-0.3-1.9-1.4-1.7-2.6 0.3-1.1 1.5-1.9 2.6-1.6z"/>
					<path class="s2" d="m1600.9 1175.2l6.2 1.3c1.2 0.2 2 1.3 1.7 2.5-0.2 1.2-1.4 1.9-2.5 1.7l-6.3-1.3c-1.2-0.2-1.9-1.4-1.7-2.5 0.2-1.2 1.4-2 2.5-1.7z"/>
					<path class="s2" d="m1621.8 1179.3l6.3 1.1c1.2 0.2 2 1.4 1.8 2.5-0.3 1.2-1.4 2-2.6 1.8l-6.3-1.2c-1.2-0.2-2-1.3-1.7-2.5 0.2-1.2 1.3-1.9 2.5-1.7z"/>
					<path class="s2" d="m1642.8 1182.9l6.3 0.9c1.2 0.2 2.1 1.3 1.9 2.5-0.2 1.2-1.3 2-2.5 1.9l-6.4-1c-1.2-0.2-2-1.3-1.8-2.5 0.2-1.2 1.3-2 2.5-1.8z"/>
					<path class="s2" d="m1663.9 1185.9l6.3 0.8h0.1c1.2 0.1 2 1.2 1.9 2.4-0.2 1.2-1.3 2.1-2.5 1.9l-6.4-0.8c-1.2-0.1-2-1.2-1.9-2.4 0.2-1.2 1.3-2.1 2.5-1.9z"/>
					<path class="s2" d="m1685.1 1188.3l6.3 0.6h0.1c1.2 0.1 2.1 1.2 1.9 2.4-0.1 1.2-1.1 2.1-2.4 2l-6.4-0.6c-1.2-0.1-2.1-1.2-1.9-2.4 0.1-1.2 1.2-2.1 2.4-2z"/>
					<path class="s2" d="m1706.3 1190.1l6.4 0.5c1.2 0 2.2 1.1 2.1 2.3-0.1 1.2-1.2 2.2-2.4 2.1l-6.4-0.5c-1.2 0-2.1-1.1-2.1-2.3 0.1-1.2 1.2-2.1 2.4-2.1z"/>
					<path class="s2" d="m1727.6 1191.4l6.4 0.2c1.2 0 2.2 1.1 2.1 2.3 0 1.2-1 2.2-2.3 2.1l-6.4-0.2c-1.2-0.1-2.2-1.1-2.1-2.3 0-1.2 1-2.2 2.3-2.1z"/>
					<path class="s2" d="m1748.9 1192h6.4c1.2 0 2.2 1 2.2 2.3 0 1.2-1 2.2-2.2 2.2l-6.5-0.1c-1.2 0-2.2-1-2.2-2.2 0-1.3 1-2.3 2.3-2.2z"/>
					<path class="s2" d="m1770.2 1192l6.4-0.2c1.3 0 2.3 1 2.3 2.2 0 1.3-1 2.3-2.2 2.3l-6.4 0.1c-1.3 0.1-2.3-0.9-2.3-2.2 0-1.2 0.9-2.2 2.2-2.2z"/>
					<path class="s2" d="m1791.5 1191.3l6.4-0.3c1.2-0.1 2.3 0.9 2.4 2.1 0 1.3-0.9 2.3-2.2 2.4l-6.4 0.3c-1.2 0.1-2.3-0.9-2.4-2.1 0-1.3 0.9-2.3 2.2-2.4z"/>
					<path class="s2" d="m1812.8 1190l6.3-0.5h0.1c1.2-0.1 2.3 0.9 2.4 2.1 0.1 1.2-0.8 2.3-2.1 2.4l-6.4 0.6c-1.2 0-2.3-0.9-2.4-2.1-0.1-1.3 0.8-2.4 2-2.5z"/>
					<path class="s2" d="m1834 1188.1l6.3-0.7h0.1c1.2-0.2 2.3 0.7 2.5 2 0.1 1.2-0.8 2.4-2 2.5l-6.4 0.7c-1.3 0.2-2.4-0.7-2.5-2-0.2-1.2 0.7-2.4 2-2.5z"/>
					<path class="s2" d="m1855.1 1185.5l6.3-0.9 0.1-0.1c1.2-0.1 2.4 0.7 2.6 2 0.1 1.2-0.7 2.4-2 2.6l-6.3 0.9c-1.3 0.2-2.4-0.7-2.6-1.9-0.2-1.3 0.7-2.4 1.9-2.6z"/>
					<path class="s2" d="m1876.2 1182.1l6.2-1.1h0.1c1.2-0.2 2.4 0.6 2.6 1.9 0.3 1.2-0.6 2.4-1.8 2.6l-6.3 1.2c-1.3 0.2-2.5-0.6-2.7-1.9-0.2-1.2 0.6-2.4 1.8-2.6z"/>
					<path class="s2" d="m1897.1 1178.1l6.2-1.4c1.3-0.3 2.5 0.5 2.8 1.8 0.3 1.2-0.5 2.5-1.8 2.7l-6.3 1.4c-1.2 0.3-2.4-0.5-2.7-1.8-0.3-1.2 0.5-2.4 1.7-2.7z"/>
					<path class="s2" d="m1917.8 1173.3l6.2-1.6c1.3-0.4 2.5 0.4 2.8 1.6 0.4 1.3-0.4 2.5-1.6 2.9l-6.3 1.6c-1.2 0.3-2.5-0.5-2.8-1.7-0.3-1.2 0.4-2.5 1.7-2.8z"/>
					<path class="s2" d="m1938.3 1167.7l6.1-1.9h0.1c1.2-0.4 2.5 0.3 2.9 1.6 0.4 1.2-0.3 2.5-1.6 2.9l-6.1 1.8c-1.3 0.4-2.6-0.3-2.9-1.5-0.4-1.3 0.3-2.6 1.5-2.9z"/>
					<path class="s2" d="m1958.6 1161.2l6-2.1h0.1c1.2-0.4 2.5 0.2 3 1.4 0.4 1.3-0.3 2.6-1.5 3l-6.1 2.1c-1.2 0.5-2.5-0.2-3-1.4-0.4-1.2 0.3-2.6 1.5-3z"/>
					<path class="s2" d="m1978.6 1153.9l5.9-2.4c1.2-0.5 2.6 0.1 3.1 1.3 0.5 1.2-0.1 2.6-1.3 3.1l-6 2.4c-1.2 0.4-2.6-0.1-3.1-1.3-0.4-1.3 0.2-2.6 1.4-3.1z"/>
					<path class="s2" d="m1998.2 1145.7l5.8-2.7c1.2-0.5 2.6 0 3.2 1.2 0.5 1.2 0 2.6-1.2 3.1l-5.9 2.7c-1.2 0.5-2.6 0-3.1-1.2-0.5-1.2 0-2.6 1.2-3.1z"/>
					<path class="s2" d="m2017.4 1136.5l5.6-3h0.1c1.1-0.6 2.6-0.1 3.2 1 0.6 1.2 0.1 2.6-1 3.2h-0.1l-5.7 3c-1.1 0.6-2.6 0.2-3.2-1-0.6-1.2-0.1-2.6 1-3.2z"/>
					<path class="s2" d="m2036 1126.3l5.5-3.2h0.1c1.1-0.7 2.6-0.3 3.2 0.8 0.7 1.1 0.3 2.6-0.8 3.3l-5.6 3.3c-1.1 0.6-2.6 0.3-3.2-0.9-0.7-1.1-0.3-2.6 0.8-3.2z"/>
					<path class="s2" d="m2054.1 1115.2l5.3-3.6c1.1-0.8 2.6-0.5 3.3 0.6 0.8 1.1 0.5 2.6-0.6 3.4l-5.4 3.6c-1.1 0.7-2.6 0.4-3.3-0.7-0.7-1.1-0.4-2.6 0.7-3.3z"/>
					<path class="s2" d="m2071.5 1102.9l5-3.8v-0.1c1.1-0.8 2.6-0.6 3.4 0.5 0.8 1.1 0.6 2.6-0.4 3.4l-5.2 3.9c-1 0.8-2.5 0.6-3.3-0.5-0.8-1-0.6-2.5 0.4-3.3z"/>
					<path class="s2" d="m2088 1089.7l4.8-4.2c1-0.9 2.6-0.8 3.5 0.2 0.8 1 0.7 2.5-0.3 3.4l-4.8 4.2c-1.1 0.9-2.6 0.8-3.5-0.2-0.8-1-0.7-2.5 0.3-3.4z"/>
					<path class="s2" d="m2103.7 1075.3l4.5-4.5c0.9-0.9 2.5-0.9 3.4 0 1 1 1 2.5 0 3.5l-4.6 4.5c-0.9 1-2.4 1-3.4 0-0.9-0.9-0.9-2.5 0-3.4z"/>
					<path class="s2" d="m2118.3 1060l4.2-4.8c0.9-1 2.4-1.1 3.5-0.3 1 0.9 1.1 2.5 0.2 3.5l-4.3 4.9c-0.9 1-2.4 1.1-3.4 0.2-1-0.9-1.1-2.4-0.2-3.5z"/>
					<path class="s2" d="m2131.9 1043.7l3.8-5.1c0.9-1.1 2.4-1.3 3.5-0.5 1.1 0.9 1.3 2.4 0.4 3.5l-3.9 5.1c-0.8 1.1-2.3 1.3-3.4 0.5-1.1-0.8-1.3-2.4-0.5-3.5z"/>
					<path class="s2" d="m2144.3 1026.5l3.5-5.3c0.8-1.2 2.3-1.5 3.4-0.7 1.2 0.7 1.5 2.3 0.7 3.4l-3.5 5.4c-0.8 1.1-2.3 1.4-3.4 0.7-1.2-0.8-1.5-2.3-0.7-3.4z"/>
					<path class="s2" d="m2155.6 1008.6l3.1-5.6c0.7-1.2 2.2-1.6 3.4-0.9 1.2 0.6 1.6 2.1 0.9 3.3l-3.2 5.6c-0.6 1.2-2.1 1.6-3.3 1-1.2-0.7-1.6-2.2-1-3.4z"/>
					<path class="s2" d="m2165.6 989.9l2.8-5.7v-0.1c0.6-1.2 2.1-1.7 3.4-1.1 1.2 0.6 1.7 2.1 1.1 3.3l-2.8 5.8c-0.6 1.2-2.1 1.7-3.3 1.1-1.3-0.6-1.8-2-1.2-3.3z"/>
					<path class="s2" d="m2174.5 970.6l2.4-5.9c0.6-1.3 2-1.9 3.3-1.4 1.3 0.5 1.9 2 1.4 3.3l-2.5 6c-0.5 1.2-2 1.8-3.3 1.3-1.2-0.5-1.8-2-1.3-3.3z"/>
					<path class="s2" d="m2182.2 950.8l2-6v-0.1c0.5-1.3 1.9-2 3.2-1.5 1.3 0.4 2 1.9 1.6 3.2l-2.1 6.1c-0.5 1.3-1.9 2-3.2 1.5-1.3-0.4-2-1.8-1.6-3.1z"/>
					<path class="s2" d="m2188.6 930.6l1.7-6.1v-0.1c0.4-1.3 1.8-2.1 3.1-1.7 1.4 0.3 2.1 1.7 1.8 3.1l-1.8 6.2c-0.3 1.3-1.7 2.1-3.1 1.7-1.3-0.3-2.1-1.7-1.7-3.1z"/>
					<path class="s2" d="m2193.9 910l1.3-6.2c0.3-1.4 1.7-2.3 3-2 1.4 0.3 2.3 1.7 2 3l-1.4 6.3c-0.3 1.4-1.6 2.3-3 2-1.4-0.3-2.2-1.7-1.9-3z"/>
					<path class="s2" d="m2198 889.2l1-6.3c0.2-1.4 1.5-2.4 2.9-2.1 1.4 0.2 2.3 1.5 2.1 2.9l-1 6.3c-0.3 1.4-1.6 2.4-2.9 2.1-1.4-0.2-2.4-1.5-2.1-2.9z"/>
					<path class="s2" d="m2200.9 868.2l0.7-6.4c0.2-1.4 1.4-2.4 2.8-2.3 1.4 0.2 2.4 1.4 2.3 2.8l-0.7 6.4c-0.2 1.4-1.4 2.5-2.8 2.3-1.4-0.1-2.4-1.4-2.3-2.8z"/>
					<path class="s2" d="m2202.8 847l0.3-6.4c0.1-1.4 1.3-2.5 2.7-2.4 1.4 0.1 2.5 1.3 2.4 2.7l-0.3 6.4c-0.1 1.4-1.3 2.5-2.7 2.4-1.4 0-2.5-1.2-2.4-2.7z"/>
					<path class="s2" d="m2203.5 825.8l0.1-6.4c0-1.5 1.1-2.6 2.5-2.6 1.5 0 2.6 1.2 2.6 2.6v6.4c0 1.5-1.2 2.6-2.6 2.6-1.4 0-2.6-1.2-2.6-2.6 0 0 0 0 0 0z"/>
					<path class="s2" d="m2203.2 804.5l-0.2-6.3v-0.1c-0.1-1.4 1-2.6 2.4-2.7 1.4 0 2.7 1.1 2.7 2.5l0.3 6.4c0.1 1.5-1 2.7-2.5 2.7-1.4 0.1-2.6-1-2.7-2.4z"/>
					<path class="s2" d="m2201.9 783.3l-0.6-6.3v-0.1c-0.1-1.4 1-2.7 2.4-2.8 1.4-0.1 2.7 0.9 2.8 2.4l0.6 6.4c0.1 1.4-0.9 2.7-2.3 2.8-1.5 0.1-2.7-0.9-2.9-2.3z"/>
					<path class="s2" d="m2199.6 762.2l-0.9-6.3v-0.1c-0.2-1.4 0.8-2.7 2.2-2.9 1.5-0.2 2.8 0.8 3 2.2l0.9 6.4c0.2 1.4-0.8 2.7-2.2 2.9-1.5 0.2-2.8-0.7-3-2.2z"/>
					<path class="s2" d="m2196.3 741.2l-1.2-6.3c-0.3-1.4 0.7-2.8 2.1-3.1 1.4-0.2 2.8 0.7 3.1 2.1l1.1 6.4c0.3 1.4-0.6 2.8-2 3-1.5 0.3-2.8-0.6-3.1-2.1z"/>
					<path class="s2" d="m2192 720.4l-1.4-6.2v-0.1c-0.4-1.4 0.5-2.8 1.9-3.1 1.4-0.4 2.8 0.5 3.2 1.9l1.5 6.3c0.3 1.4-0.6 2.8-2 3.2-1.4 0.3-2.8-0.6-3.2-2z"/>
					<path class="s2" d="m2186.8 699.8l-1.7-6.2c-0.4-1.4 0.4-2.9 1.8-3.3 1.4-0.4 2.8 0.5 3.2 1.9l1.8 6.2c0.4 1.4-0.4 2.8-1.8 3.2-1.4 0.4-2.9-0.4-3.3-1.8z"/>
					<path class="s2" d="m2180.7 679.4l-2-6v-0.1c-0.5-1.4 0.3-2.9 1.6-3.3 1.4-0.5 2.9 0.3 3.4 1.7l2 6.1c0.5 1.4-0.3 2.9-1.7 3.3-1.3 0.5-2.8-0.3-3.3-1.6z"/>
					<path class="s2" d="m2173.7 659.4l-2.3-6c-0.5-1.4 0.1-2.9 1.5-3.5 1.4-0.5 2.9 0.2 3.5 1.6l2.2 6c0.6 1.4-0.1 2.9-1.5 3.4-1.4 0.5-2.9-0.1-3.4-1.5z"/>
					<path class="s2" d="m2165.8 639.6l-2.5-5.8-0.1-0.1c-0.5-1.3 0.1-2.9 1.4-3.5 1.4-0.6 3 0.1 3.5 1.4h0.1l2.5 5.9c0.6 1.4 0 3-1.4 3.5-1.3 0.6-2.9 0-3.5-1.4z"/>
					<path class="s2" d="m2157.1 620.2l-2.8-5.7v-0.1c-0.7-1.3-0.1-2.9 1.2-3.5 1.4-0.7 3-0.1 3.6 1.2l2.8 5.8c0.7 1.4 0.1 3-1.2 3.6-1.4 0.6-3 0.1-3.6-1.3z"/>
					<path class="s2" d="m2147.5 601.2l-3-5.6c-0.7-1.4-0.2-3 1.1-3.7 1.3-0.7 3-0.2 3.7 1.1l3 5.7c0.7 1.3 0.2 2.9-1.1 3.6-1.3 0.7-2.9 0.2-3.6-1.1z"/>
					<path class="s2" d="m2137.2 582.6l-3.2-5.5c-0.8-1.3-0.3-3 1-3.7 1.2-0.8 2.9-0.3 3.7 0.9l3.2 5.6c0.8 1.3 0.3 2.9-0.9 3.7-1.3 0.7-3 0.3-3.7-1z"/>
					<path class="s2" d="m2126.2 564.4l-3.5-5.3v-0.1c-0.8-1.2-0.4-2.9 0.8-3.7 1.3-0.8 3-0.5 3.8 0.8l3.5 5.4c0.8 1.3 0.4 3-0.8 3.8-1.3 0.8-3 0.4-3.8-0.8z"/>
					<path class="s2" d="m2114.4 546.7l-3.6-5.2h-0.1c-0.8-1.3-0.5-3 0.7-3.8 1.2-0.9 2.9-0.6 3.8 0.6l3.7 5.3c0.9 1.3 0.6 2.9-0.7 3.8-1.2 0.9-2.9 0.6-3.8-0.7z"/>
					<path class="s2" d="m2102 529.5l-3.9-5.1c-0.9-1.2-0.7-2.9 0.5-3.8 1.2-1 2.9-0.7 3.8 0.5l3.9 5.1c1 1.2 0.7 2.9-0.5 3.8-1.2 0.9-2.9 0.7-3.8-0.5z"/>
					<path class="s2" d="m2088.9 512.8l-4.1-5c-1-1.2-0.8-2.9 0.3-3.9 1.2-0.9 2.9-0.8 3.9 0.4l4.1 5c1 1.2 0.8 2.9-0.4 3.8-1.1 1-2.9 0.8-3.8-0.3z"/>
					<path class="s2" d="m2075.1 496.5l-4.2-4.7-0.1-0.1c-1-1.1-0.9-2.8 0.3-3.9 1.1-1 2.8-0.9 3.8 0.3h0.1l4.2 4.8c1 1.1 0.9 2.9-0.2 3.9-1.1 1-2.9 0.9-3.9-0.2z"/>
					<path class="s2" d="m2060.7 480.8l-4.4-4.6c-1.1-1.1-1-2.8 0.1-3.9 1.1-1.1 2.8-1 3.9 0.1l4.4 4.6c1.1 1.1 1.1 2.9 0 3.9-1.1 1.1-2.9 1.1-3.9 0z"/>
					<path class="s2" d="m2045.8 465.7l-4.6-4.4v-0.1c-1.1-1-1.2-2.8-0.1-3.9 1.1-1.1 2.8-1.1 3.9-0.1v0.1l4.7 4.4c1.1 1.1 1.1 2.9 0 4-1 1.1-2.8 1.1-3.9 0z"/>
					<path class="s2" d="m2030.3 451.1l-4.8-4.2v-0.1c-1.1-1-1.2-2.8-0.2-3.9 1-1.1 2.8-1.2 4-0.2l4.7 4.3c1.2 1 1.3 2.8 0.3 3.9-1.1 1.2-2.8 1.3-4 0.2z"/>
					<path class="s2" d="m2014.3 437.1l-4.9-4.1c-1.2-1-1.4-2.8-0.4-3.9 1-1.2 2.8-1.4 4-0.4l4.9 4.1c1.2 1 1.3 2.8 0.4 4-1 1.2-2.8 1.3-4 0.3z"/>
					<path class="s2" d="m1997.8 423.7l-5-4h-0.1c-1.2-0.9-1.4-2.7-0.4-3.9 0.9-1.2 2.7-1.5 3.9-0.5l5.1 4c1.2 0.9 1.4 2.7 0.5 3.9-1 1.2-2.8 1.4-4 0.5z"/>
					<path class="s2" d="m1980.9 410.8l-5.2-3.8c-1.3-0.9-1.6-2.7-0.6-3.9 0.9-1.3 2.6-1.6 3.9-0.6l5.2 3.7c1.3 1 1.5 2.7 0.6 4-0.9 1.2-2.7 1.5-3.9 0.6z"/>
					<path class="s2" d="m1963.5 398.5l-5.3-3.6c-1.3-0.9-1.6-2.7-0.8-4 0.9-1.3 2.7-1.6 4-0.7l5.3 3.6c1.3 0.9 1.6 2.6 0.8 3.9-0.9 1.3-2.7 1.7-4 0.8z"/>
					<path class="s2" d="m1945.8 386.7l-5.4-3.4h-0.1c-1.3-0.9-1.7-2.6-0.8-3.9 0.8-1.4 2.6-1.8 3.9-0.9l5.4 3.4c1.4 0.9 1.7 2.6 0.9 4-0.8 1.3-2.6 1.7-3.9 0.8z"/>
					<path class="s2" d="m1927.7 375.5l-5.5-3.2h-0.1c-1.3-0.8-1.8-2.6-1-4 0.8-1.3 2.6-1.8 3.9-1l5.6 3.3c1.3 0.8 1.8 2.6 1 3.9-0.8 1.4-2.6 1.8-3.9 1z"/>
					<path class="s2" d="m1909.2 364.9l-5.6-3.1c-1.4-0.8-1.9-2.5-1.1-3.9 0.7-1.4 2.5-1.9 3.9-1.1l5.6 3.1c1.4 0.7 1.9 2.5 1.1 3.9-0.7 1.4-2.5 1.9-3.9 1.1z"/>
					<path class="s2" d="m1890.5 354.8l-5.7-2.9c-1.5-0.8-2-2.5-1.3-3.9 0.7-1.4 2.5-2 3.9-1.2l5.7 2.9c1.4 0.7 2 2.5 1.3 3.9-0.8 1.4-2.5 1.9-3.9 1.2z"/>
					<path class="s2" d="m1871.4 345.3l-5.7-2.8h-0.1c-1.4-0.7-2-2.4-1.3-3.8 0.7-1.5 2.4-2.1 3.8-1.4l5.8 2.8c1.5 0.7 2.1 2.4 1.4 3.8-0.7 1.5-2.4 2.1-3.9 1.4z"/>
					<path class="s2" d="m1852.1 336.3l-5.8-2.6c-1.5-0.6-2.2-2.4-1.5-3.8 0.6-1.5 2.3-2.1 3.8-1.5l5.9 2.6c1.4 0.7 2.1 2.4 1.5 3.8-0.7 1.5-2.4 2.2-3.9 1.5z"/>
					<path class="s2" d="m1832.6 327.9l-5.9-2.4-0.1-0.1c-1.5-0.6-2.2-2.3-1.6-3.7 0.6-1.5 2.3-2.2 3.8-1.6l6 2.4c1.5 0.6 2.2 2.3 1.6 3.8-0.6 1.5-2.3 2.2-3.8 1.6z"/>
					<path class="s2" d="m1812.8 320l-6-2.3c-1.5-0.5-2.3-2.2-1.7-3.7 0.5-1.5 2.2-2.3 3.7-1.7l6.1 2.3c1.5 0.5 2.2 2.2 1.7 3.7-0.6 1.5-2.3 2.3-3.8 1.7z"/>
					<path class="s2" d="m1792.8 312.7l-6.1-2.1c-1.5-0.5-2.3-2.2-1.8-3.7 0.5-1.6 2.2-2.4 3.7-1.9l6.1 2.2c1.6 0.5 2.4 2.2 1.8 3.7-0.5 1.5-2.2 2.3-3.7 1.8z"/>
					<path class="s2" d="m1772.6 305.9l-6.1-1.9c-1.6-0.5-2.4-2.2-1.9-3.7 0.4-1.6 2.1-2.4 3.7-1.9l6.1 1.9c1.5 0.5 2.4 2.2 1.9 3.7-0.5 1.6-2.1 2.4-3.7 1.9z"/>
					<path class="s2" d="m1752.2 299.7l-6.1-1.8c-1.6-0.4-2.5-2.1-2.1-3.6 0.5-1.6 2.1-2.5 3.7-2l6.2 1.7c1.5 0.5 2.5 2.1 2 3.7-0.4 1.5-2.1 2.5-3.7 2z"/>
					<path class="s2" d="m1731.7 294l-6.2-1.6c-1.6-0.4-2.5-2-2.1-3.6 0.4-1.6 2-2.5 3.6-2.1l6.2 1.6c1.6 0.4 2.5 2 2.1 3.6-0.4 1.6-2 2.5-3.6 2.1z"/>
					<path class="s2" d="m1711 288.9l-6.2-1.4c-1.6-0.4-2.6-2-2.3-3.6 0.4-1.6 2-2.6 3.6-2.2l6.3 1.4c1.6 0.4 2.6 2 2.2 3.6-0.4 1.6-2 2.6-3.6 2.2z"/>
					<path class="s2" d="m1690.2 284.4l-6.2-1.3h-0.1c-1.6-0.3-2.6-1.9-2.3-3.5 0.3-1.6 1.9-2.7 3.5-2.3l6.3 1.2c1.6 0.4 2.7 1.9 2.4 3.5-0.4 1.7-1.9 2.7-3.6 2.4z"/>
					<path class="s2" d="m1669.3 280.4l-6.3-1.1c-1.6-0.3-2.7-1.8-2.5-3.5 0.3-1.6 1.9-2.7 3.5-2.4l6.4 1.1c1.6 0.3 2.7 1.8 2.4 3.5-0.3 1.6-1.8 2.7-3.5 2.4z"/>
					<path class="s2" d="m1648.3 277l-6.3-0.9-0.1-0.1c-1.6-0.2-2.7-1.7-2.5-3.4 0.2-1.6 1.8-2.7 3.4-2.5l6.4 0.9c1.6 0.3 2.8 1.8 2.5 3.4-0.2 1.7-1.7 2.8-3.4 2.6z"/>
					<path class="s2" d="m1627.2 274.1l-5.8-0.7c-1.6-0.2-2.8-1.7-2.6-3.3 0.2-1.7 1.7-2.9 3.3-2.7l5.8 0.7c1.7 0.2 2.9 1.7 2.7 3.4-0.2 1.6-1.7 2.8-3.4 2.6z"/>
				</g>
				<g>
					<path class="s3" d="m1595.5 233l5 37.6-27.6-12.7z"/>
					<path class="s1" d="m1423.4 234l113.5 75.6c2.2 1.4 4.9 1.9 7.4 1.4 2.6-0.6 4.8-2.2 6.1-4.4l71.6-116.9c0.8-1.3 0.7-3-0.2-4.3-0.9-1.2-2.5-1.8-4.1-1.4z"/>
					<path class="s3" d="m1595.5 233l-172.1 1 160.6 17.9 1.8 10.4z"/>
					<path class="s3" d="m1577.1 263.1l23.4 7.5-16.5-18.7z"/>
				</g>
			</g>
		</g>
	</g>
</svg>