<svg version="1.2" xmlns="http://www.w3.org/2000/svg" viewBox="0 0 500 500" width="520" height="520">
	<style>
		.s0 { fill: #231d27 } 
		.s1 { fill: #2b252f } 
		.s2 { fill: #45474a } 
		.s3 { fill: #ff6166 } 
		.s4 { fill: #e9e8d8 } 
	</style>
	<g id="OBJECTS">
		<g>
			<g>
				<g>
					<path class="s0" d="m322.19 500h-145.35c-18.35 0-33.23-14.88-33.23-33.23v-396.69c0-38.71 31.38-70.08 70.08-70.08h71.65c38.7 0 70.08 31.37 70.08 70.08v396.69c0 18.35-14.88 33.23-33.23 33.23z"/>
					<path class="s0" d="m147.6 147.4c5.86-1 4 10.41 0 13.02-3.99 2.6-27.6 7.81-27.6 7.81 0 0 0-16.15 27.6-20.83z"/>
					<path class="s0" d="m351.42 147.4c-5.85-1-3.99 10.41 0 13.02 4 2.6 27.61 7.81 27.61 7.81 0 0 0-16.15-27.61-20.83z"/>
					<path class="s1" d="m223.63 478.91h51.77c41.69 0 62.58-7.01 62.58-48.7l-15.2-222.4 28.11-134.18c0-43.72-35.45-67.78-79.17-67.78h-44.42c-43.72 0-79.16 24.06-79.16 67.78l28.11 134.18-15.2 222.4c0 41.69 20.89 48.7 62.58 48.7z"/>
					<path class="s2" d="m151.33 121.88c0 0 16.07 78.64 17.63 93.75 1.56 15.1 3.12 202.6 0 209.37-3.12 6.77-7.91 5.21-7.91 5.21 0 0-9.72-39.06-9.72-131.25 0-92.19 0-177.08 0-177.08z"/>
					<path class="s3" d="m156.46 457.81c1.04 4.17 18.75 22.92 19.79 26.56 1.04 3.65-9.36 8.07-19.79-3.12-10.43-11.2 0-23.44 0-23.44z"/>
					<path class="s2" d="m347.7 121.88c0 0-16.07 78.64-17.63 93.75-1.56 15.1-3.12 202.6 0 209.37 3.13 6.77 7.91 5.21 7.91 5.21 0 0 9.72-39.06 9.72-131.25 0-92.19 0-177.08 0-177.08z"/>
					<path class="s2" d="m176.25 207.81c0 0-18.43-79.16-15.2-93.75 3.22-14.58 43.74-25.52 88.46-25.52 44.73 0 85.25 10.94 88.47 25.52 3.23 14.58-15.2 93.75-15.2 93.75 0 0-24.72-4.68-73.27-4.68-48.54 0-73.26 4.68-73.26 4.68zm73.26 263.54c-54.34 0-70.14-13.54-70.14-13.54l-10.93 8.33c32.29 23.44 81.07 20.84 81.07 20.84 0 0 48.79 2.6 81.08-20.84l-10.94-8.33c0 0-15.8 13.54-70.14 13.54z"/>
					<path class="s3" d="m342.57 457.81c-1.04 4.17-18.75 22.92-19.79 26.56-1.04 3.65 9.36 8.07 19.79-3.12 10.43-11.2 0-23.44 0-23.44z"/>
				</g>
				<path class="s4" d="m198.22 15.03c-0.24-3.72-2.6-7.08-5.65-9.22q-0.03-0.02-0.06-0.04c-13.01 5.07-24 14.16-31.46 25.75 9.04 2.75 19.21 1.84 27.52-2.71 5.2-2.84 10.04-7.86 9.65-13.78z"/>
				<path class="s4" d="m300.81 15.03c0.24-3.72 2.6-7.08 5.65-9.22q0.03-0.02 0.06-0.04c13.01 5.07 24 14.16 31.46 25.75-9.04 2.75-19.2 1.84-27.52-2.71-5.2-2.84-10.04-7.86-9.65-13.78z"/>
				<path class="s2" d="m311.94 298.25h-124.86c-4.11 0-7.44-3.33-7.44-7.44v-53.65c0-4.11 3.33-7.44 7.44-7.44h124.86c4.11 0 7.44 3.33 7.44 7.44v53.65c0 4.11-3.33 7.44-7.44 7.44z"/>
			</g>
		</g>
	</g>
</svg>