<svg version="1.2" xmlns="http://www.w3.org/2000/svg" viewBox="0 0 500 500" width="520" height="520">
	<style>
		.s0 { fill: #2a89e4 } 
		.s1 { fill: #54a0e9 } 
		.s2 { fill: #45474a } 
		.s3 { fill: #ff6166 } 
		.s4 { fill: #ffcc00 } 
		.s5 { fill: #e9e8d8 } 
	</style>
	<g id="OBJECTS">
		<g>
			<g>
				<path class="s0" d="m323.06 500h-145.82c-22.12 0-40.06-17.93-40.06-40.05v-373.19c0-47.92 38.85-86.76 86.76-86.76h52.41c47.91 0 86.76 38.84 86.76 86.76v373.19c0 22.12-17.93 40.05-40.05 40.05z"/>
				<path class="s1" d="m277.76 477.5h-55.22c-44.47 0-66.76-7.48-66.76-51.95l16.22-203.89-29.99-126.53c0-46.64 37.81-84.44 84.45-84.44h47.37c46.64 0 84.45 37.8 84.45 84.44l-29.99 126.53 16.22 203.89c0 44.48-22.28 51.95-66.75 51.95z"/>
				<path class="s0" d="m141.44 157.22c6.25-1.06 4.26 11.11 0 13.89-4.26 2.78-29.44 8.33-29.44 8.33 0 0 0-17.22 29.44-22.22z"/>
				<path class="s2" d="m145.42 130c0 0 17.13 83.89 18.8 100 1.67 16.11 3.33 182.78 0 190-3.33 7.22-8.44 5.56-8.44 5.56 0 0-10.36-19.45-10.36-117.78 0-98.34 0-177.78 0-177.78z"/>
				<path class="s3" d="m150.89 455c1.11 4.44 20 24.44 21.11 28.33 1.11 3.89-9.99 8.61-21.11-3.33-11.13-11.94 0-25 0-25z"/>
				<path class="s4" d="m175.33 477.5c0 0 13.61 3.61 19.17 13.89 0 0-17.5-0.84-19.17-13.89z"/>
				<path class="s5" d="m149.78 66.11c0 0-3.06-38.33 35.13-47.78 0 0-10.13 35.56-35.13 47.78z"/>
				<path class="s0" d="m358.85 157.22c-6.25-1.06-4.26 11.11 0 13.89 4.26 2.78 29.44 8.33 29.44 8.33 0 0 0.01-17.22-29.44-22.22z"/>
				<path class="s2" d="m354.88 130c0 0-17.14 83.89-18.81 100-1.66 16.11-3.33 182.78 0 190 3.34 7.22 8.44 5.56 8.44 5.56 0 0 10.37-19.45 10.37-117.78 0-98.34 0-177.78 0-177.78z"/>
				<path class="s2" d="m172 221.67c0 0-19.66-84.45-16.22-100 3.44-15.56 46.66-27.23 94.37-27.23 47.7 0 90.92 11.67 94.36 27.23 3.44 15.55-16.21 100-16.21 100 0 0-26.37-5-78.15-5-51.78-0.01-78.15 5-78.15 5zm78.15 247.77c-57.96 0-74.82-14.44-74.82-14.44l-11.66 8.89c34.44 25 86.48 22.22 86.48 22.22 0 0 52.04 2.78 86.48-22.22l-11.67-8.89c0 0-16.85 14.44-74.81 14.44z"/>
				<path class="s3" d="m349.41 455c-1.11 4.44-20 24.44-21.11 28.33-1.11 3.89 9.98 8.61 21.11-3.33 11.12-11.94 0-25 0-25z"/>
				<path class="s4" d="m324.96 477.5c0 0-13.61 3.61-19.17 13.89 0 0 17.5-0.84 19.17-13.89z"/>
				<path class="s5" d="m350.52 66.11c0 0 3.05-38.33-35.14-47.78 0 0 10.14 35.56 35.14 47.78z"/>
			</g>
		</g>
	</g>
</svg>