<svg version="1.2" xmlns="http://www.w3.org/2000/svg" viewBox="0 0 500 500" width="520" height="520">
	<style>
		.s0 { fill: #6f686c } 
		.s1 { fill: #807a7e } 
		.s2 { fill: #e9e8d8 } 
		.s3 { fill: #45474a } 
		.s4 { fill: #ffcc00 } 
	</style>
	<g id="OBJECTS">
		<g>
			<g>
				<path class="s0" d="m181.52 500h137.8c19.01 0 34.42-15.41 34.42-34.42v-388.44c0-42.61-34.53-77.14-77.14-77.14h-52.36c-42.61 0-77.14 34.53-77.14 77.14v388.44c0 19.01 15.41 34.42 34.42 34.42z"/>
				<path class="s1" d="m195.73 487.24h109.37c23.95 0 43.36-19.42 43.36-43.36l-33.13-91.24 0.92-168.92 32.22-93.72c0-42.66-34.58-77.23-77.24-77.23h-41.62c-42.65 0-77.23 34.57-77.23 77.23l32.21 93.72 0.92 168.92-33.13 91.24c-0.01 23.94 19.41 43.36 43.35 43.36z"/>
				<path class="s2" d="m198.97 12.48c0.77-1.84 0.97-3.84 0.71-5.81-13.68 5.5-25.27 15.11-33.23 27.31 5-4.2 10.61-7.69 16.6-10.29 6.13-2.65 13.37-5.04 15.92-11.21z"/>
				<path class="s2" d="m301.87 12.48c-0.77-1.84-0.97-3.84-0.72-5.81 13.69 5.5 25.28 15.11 33.24 27.31-5-4.2-10.61-7.69-16.6-10.29-6.13-2.65-13.37-5.04-15.92-11.21z"/>
				<path class="s3" d="m176.8 266.7c-0.31-25.69-0.95-49.21-0.95-57.86 0-25.91-19.31-50.3-19.31-50.3v100.49c6.63 2.86 13.46 5.24 20.26 7.67z"/>
				<path class="s3" d="m176.26 330.57c0.81-16.31 0.82-38.76 0.59-60.17-6.84-1.89-13.63-3.95-20.3-6.35v76.22c6.69-2.98 13.28-6.19 19.71-9.7z"/>
				<path class="s3" d="m156.54 345.85v26.61c0 0 16.77-0.51 19.31-35.06q0.11-1.42 0.2-2.93c-6.4 3.99-12.74 8.09-19.51 11.38z"/>
				<path class="s0" d="m152.48 145.32l-22.61 6.18c-4.12 1.13-6.62 5.3-5.67 9.46l0.84 3.67 27.44-6.09z"/>
				<path class="s3" d="m276.5 2.03h-52.16c-6.31 0-12.43 0.78-18.3 2.2 6.64 4.52 14.5 6.95 22.55 6.95h43.65c8.06 0 15.91-2.43 22.55-6.95-5.86-1.42-11.98-2.2-18.29-2.2z"/>
				<path class="s3" d="m324.03 266.7c0.32-25.69 0.96-49.21 0.96-57.86 0-25.91 19.3-50.3 19.3-50.3v100.49c-6.62 2.86-13.45 5.24-20.26 7.67z"/>
				<path class="s3" d="m324.58 330.57c-0.81-16.31-0.82-38.76-0.59-60.17 6.84-1.89 13.62-3.95 20.31-6.35v76.22c-6.7-2.98-13.29-6.19-19.72-9.7z"/>
				<path class="s3" d="m344.3 345.85v26.61c0 0-16.77-0.51-19.31-35.06q-0.1-1.42-0.19-2.93c6.39 3.99 12.73 8.09 19.5 11.38z"/>
				<path class="s3" d="m333.89 141.66c-1.16 8.32-4.99 25.01-17.64 42.06-1.75 2.36-4.64 3.61-7.58 3.36-9.75-0.83-33.59-2.63-58.25-2.63-24.66 0-48.5 1.8-58.26 2.63-2.94 0.25-5.82-1-7.58-3.36-12.65-17.05-16.48-33.74-17.63-42.06-0.5-3.54 1.2-7.04 4.34-8.75 8.68-4.75 30.74-12.99 79.12-12.99 48.39 0 70.44 8.24 79.13 12.99 3.14 1.71 4.84 5.21 4.35 8.75zm-18.56 210.98c0 0-27.18 13.72-64.91 13.72-37.73 0-64.91-13.72-64.91-13.72-5.31 15.22-7.36 35.62-8.12 46.59-0.33 4.87 2.29 9.47 6.67 11.64 11.39 5.63 35.65 15.45 66.36 15.45 30.71 0 54.97-9.82 66.36-15.45 4.38-2.17 7-6.77 6.67-11.64-0.76-10.97-2.81-31.37-8.12-46.59z"/>
				<path class="s0" d="m348.36 145.32l22.61 6.18c4.12 1.13 6.62 5.3 5.67 9.46l-0.84 3.67-27.44-6.09z"/>
				<path class="s4" d="m180.34 493.9c-6.44-1.95-12.4-5.43-17.27-10.08-1.27-1.2-2.5-2.52-4.08-3.27-1.09-0.52-2.41-0.7-3.55-0.38 6.82 9.33 17.28 15.82 29.28 17.41q0.01-0.06 0.02-0.12c-0.07-2.03-2.47-2.97-4.4-3.56z"/>
				<path class="s4" d="m320.5 493.9c6.44-1.95 12.4-5.43 17.27-10.08 1.27-1.2 2.5-2.52 4.08-3.27 1.09-0.52 2.41-0.7 3.55-0.38-6.82 9.33-17.28 15.82-29.28 17.41q-0.01-0.06-0.02-0.12c0.07-2.03 2.47-2.97 4.4-3.56z"/>
			</g>
		</g>
	</g>
</svg>