<svg version="1.2" xmlns="http://www.w3.org/2000/svg" viewBox="0 0 500 500" width="520" height="520">
	<style>
		.s0 { fill: #1fb80f } 
		.s1 { fill: #50ce5a } 
		.s2 { fill: #45474a } 
		.s3 { fill: #ff6148 } 
		.s4 { fill: #e9e8d8 } 
	</style>
	<g id="OBJECTS">
		<g>
			<g>
				<g>
					<path class="s0" d="m124 199.85c0.55-9.23 10.96-16.22 17.09-19.76v-113.34c0-36.87 29.89-66.75 66.75-66.75h85.14c36.86 0 66.75 29.88 66.75 66.75v113.34c6.12 3.54 16.54 10.53 17.09 19.75l-17.09-8.45v249.36c0 32.72-26.53 59.25-59.25 59.25h-100.14c-32.72 0-59.25-26.53-59.25-59.25v-249.36z"/>
					<path class="s1" d="m178.9 220.3l-31.65-143.24c0-34.78 28.2-62.98 62.99-62.98h80.34c34.79 0 62.99 28.2 62.99 62.98l-31.66 143.24c5.79 3.34 3.74 77.24 3.74 77.24v111.19c0 30.88 2.89 77.19-27.99 77.19h-94.5c-30.88 0-27.8-51.38-27.8-82.26l-0.19-106.12c0 0-2.05-73.9 3.73-77.24z"/>
					<g>
						<path class="s2" d="m195.24 236.77v166.89h-10.14v-166.89z"/>
						<path class="s2" d="m315.72 236.77v166.89h-10.14v-166.89z"/>
					</g>
					<path class="s2" d="m325.65 297.54c0.37-27.56 1.39-53.02 4.03-71.02 5.18-35.22 21.76-87.54 21.76-87.54 0 0 0 95.68 0 147.24-8.53 3.94-17.14 7.67-25.79 11.32z"/>
					<path class="s2" d="m347.05 391.57c-1.28 17.28-2.34 29.18-2.34 29.18 0 0-19.17 9.33-19.17-42.99q0-3.56 0-7.19 10.83 10.41 21.51 21z"/>
					<path class="s2" d="m325.52 364.43c-0.04-18.57-0.13-38.07 0.02-56.92q11.01-3.89 21.98-7.89 1.96-0.72 3.92-1.44v0.34c0 25.51-2.02 59.69-3.84 85.43-6.92-6.95-14.63-13.13-22.08-19.52z"/>
					<path class="s2" d="m175.17 297.54c-0.37-27.56-1.39-53.02-4.03-71.02-5.18-35.22-21.76-87.54-21.76-87.54 0 0 0 95.68 0 147.24 8.52 3.94 17.14 7.67 25.79 11.32z"/>
					<path class="s2" d="m175.17 297.54c-0.37-27.56-1.39-53.02-4.03-71.02-5.18-35.22-21.76-87.54-21.76-87.54 0 0 0 95.68 0 147.24 8.52 3.94 17.14 7.67 25.79 11.32z"/>
					<path class="s2" d="m153.77 391.57c1.28 17.28 2.34 29.18 2.34 29.18 0 0 19.17 9.32 19.17-42.99q0-3.56 0-7.19-10.83 10.42-21.51 21z"/>
					<path class="s2" d="m175.3 364.43c0.04-18.57 0.13-38.07-0.02-56.92q-11.01-3.89-21.98-7.89-1.96-0.72-3.92-1.44v0.34c0 25.51 2.01 59.69 3.84 85.43 6.92-6.95 14.62-13.13 22.08-19.52z"/>
					<path class="s2" d="m250.41 97.55c-62.13 0-88.04 30.56-88.04 30.56l16.53 92.2h71.51 71.5l16.53-92.2c0.01 0-25.9-30.56-88.03-30.56z"/>
				</g>
				<path class="s2" d="m324.4 417.9c0 0-30.98 15.64-73.99 15.64-43.01 0-73.99-15.64-73.99-15.64-6.05 17.35-8.39 30.24-9.25 42.75-0.38 5.55 2.61 10.79 7.6 13.26 12.98 6.42 40.63 17.62 75.64 17.62 35.01 0 62.66-11.2 75.64-17.62 4.99-2.47 7.98-7.71 7.6-13.26-0.86-12.51-3.2-25.4-9.25-42.75z"/>
				<path class="s3" d="m193.05 491.02c-8.22-9.32-20.94-14.48-33.33-13.51q-0.08 1.11 0.02 2.23c9.62 9.06 22.27 14.94 36.28 15.94-0.69-1.69-1.79-3.32-2.97-4.66z"/>
				<path class="s3" d="m307.77 491.02c8.22-9.32 20.94-14.48 33.33-13.51q0.08 1.11-0.02 2.23c-9.62 9.06-22.28 14.94-36.28 15.94 0.69-1.69 1.79-3.32 2.97-4.66z"/>
				<path class="s4" d="m156.07 41.78c-6.22-9.12 20.72-26.93 28.66-20.72 7.94 6.22-23.48 28.32-28.66 20.72z"/>
				<path class="s4" d="m344.75 41.78c6.22-9.12-20.72-26.93-28.66-20.72-7.95 6.22 23.48 28.32 28.66 20.72z"/>
			</g>
		</g>
	</g>
</svg>