<svg version="1.2" xmlns="http://www.w3.org/2000/svg" viewBox="0 0 500 500" width="520" height="520">
	<style>
		.s0 { fill: #50cecd } 
		.s1 { fill: #81e0db } 
		.s2 { fill: #45474a } 
		.s3 { fill: #e9e8d8 } 
		.s4 { fill: #ffcc00 } 
	</style>
	<g id="OBJECTS">
		<g>
			<g>
				<path class="s0" d="m124 199.85c0.55-9.23 10.96-16.22 17.09-19.76v-81.33c0-54.54 44.22-98.76 98.76-98.76h21.12c54.54 0 98.76 44.22 98.76 98.76v81.33c6.12 3.54 16.54 10.53 17.09 19.75l-17.09-8.45v249.36c0 32.72-26.53 59.25-59.25 59.25h-100.14c-32.72 0-59.25-26.53-59.25-59.25v-249.36z"/>
				<path class="s1" d="m206.5 485.92h87.82c32.73 0 50.38-32.44 50.38-65.17l8.87-307.92c0-54.54-44.22-98.75-98.76-98.75h-8.8c-54.55 0-98.76 44.21-98.76 98.75l8.86 307.92c0 32.73 17.66 65.17 50.39 65.17z"/>
				<path class="s2" d="m347.52 299.62q1.96-0.72 3.92-1.44v0.34c0 46.61-6.74 122.24-6.74 122.24 0 0-19.16 9.32-19.16-43 0-22.37-0.19-46.83 0-70.25q11.01-3.89 21.98-7.89z"/>
				<path class="s2" d="m325.65 297.54c0.37-27.56 1.39-53.02 4.03-71.02 5.18-35.22 21.76-87.54 21.76-87.54 0 0 0 95.68 0 147.24-8.53 3.94-17.14 7.67-25.79 11.32z"/>
				<path class="s2" d="m153.3 299.62q-1.96-0.72-3.92-1.44v0.34c0 46.61 6.73 122.24 6.73 122.24 0 0 19.17 9.32 19.17-43 0-22.37 0.18-46.83 0-70.25q-11.01-3.89-21.98-7.89z"/>
				<path class="s2" d="m175.17 297.54c-0.37-27.56-1.39-53.02-4.03-71.02-5.18-35.22-21.76-87.54-21.76-87.54 0 0 0 95.68 0 147.24 8.52 3.94 17.14 7.67 25.79 11.32z"/>
				<path class="s2" d="m153.3 299.62q-1.96-0.72-3.92-1.44v0.34c0 46.61 6.73 122.24 6.73 122.24 0 0 19.17 9.32 19.17-43 0-22.37 0.18-46.83 0-70.25q-11.01-3.89-21.98-7.89z"/>
				<path class="s2" d="m175.17 297.54c-0.37-27.56-1.39-53.02-4.03-71.02-5.18-35.22-21.76-87.54-21.76-87.54 0 0 0 95.68 0 147.24 8.52 3.94 17.14 7.67 25.79 11.32z"/>
				<path class="s2" d="m250.41 97.55c-62.13 0-88.04 30.56-88.04 30.56l16.53 92.2h71.51 71.5l16.53-92.2c0.01 0-25.9-30.56-88.03-30.56z"/>
				<path class="s3" d="m338.45 50.77c-0.33 1.43-1.33 2.73-2.75 2.93-1.21 0.18-2.38-0.46-3.43-1.1-14.22-8.69-25.1-22.66-30.16-38.52 15.45 8.36 28.12 21.16 36.34 36.69z"/>
				<path class="s3" d="m162.37 50.77c0.33 1.43 1.33 2.73 2.75 2.93 1.21 0.18 2.38-0.46 3.42-1.1 14.22-8.69 25.11-22.66 30.16-38.52-15.44 8.36-28.12 21.16-36.33 36.69z"/>
				<path class="s4" d="m162.37 464.26l12.99 23.31 13.38-32.11-9.69-5.33c-2.03-1.12-4.56-0.63-6.03 1.16z"/>
				<path class="s4" d="m338.45 464.26l-13 23.31-13.38-32.11 9.69-5.33c2.03-1.12 4.56-0.63 6.03 1.16z"/>
				<path class="s2" d="m312.07 455.46c-15.54 6.73-61.66 6.21-61.66 6.21 0 0-46.13 0.52-61.66-6.21l-13.39 32.11c13.04 8.81 75.05 6.74 75.05 6.74 0 0 62.02 2.07 75.05-6.74z"/>
			</g>
		</g>
	</g>
</svg>