<svg version="1.2" xmlns="http://www.w3.org/2000/svg" viewBox="0 0 500 500" width="520" height="520">
	<style>
		.s0 { fill: #ff6f00 } 
		.s1 { fill: #ff8b00 } 
		.s2 { fill: #e9e8d8 } 
		.s3 { fill: #ff6600 } 
		.s4 { fill: #45474a } 
		.s5 { fill: #ffcc00 } 
	</style>
	<g id="OBJECTS">
		<g>
			<g>
				<path class="s0" d="m142.89 132.65c-1.54-10.84-2.32-21.78-2.32-32.73v-23.3c0-42.31 34.31-76.62 76.62-76.62h32.7 32.7c42.31 0 76.62 34.31 76.62 76.62v23.3c0 10.95-0.78 21.89-2.32 32.73l-4.58 32.13c-1.7 11.91-2.47 23.92-2.3 35.95l1.85 133.44c0.11 7.84 1.34 15.63 3.67 23.12 2.44 7.85 3.68 16.02 3.68 24.25v59.21c0 32.72-26.53 59.25-59.25 59.25h-50.07-50.07c-32.72 0-59.24-26.53-59.24-59.25v-59.22c0-8.22 1.24-16.39 3.68-24.25 2.32-7.48 3.56-15.27 3.67-23.11l1.85-133.45c0.17-12.02-0.6-24.04-2.3-35.94z"/>
				<path class="s1" d="m350.86 139.26c1.45-10.23 2.19-20.56 2.19-30.89v-21.99c0-39.93-32.37-72.3-72.31-72.3h-30.85-30.86c-39.93 0-72.31 32.37-72.31 72.3v21.99c0 10.33 0.74 20.66 2.2 30.89l4.32 30.32c1.6 11.23 2.33 22.57 2.17 33.92l-1.74 125.93c-0.11 7.4-1.28 14.75-3.47 21.81-2.3 7.41-3.47 15.12-3.47 22.88v55.89c0 30.88 25.03 55.91 55.91 55.91h47.25 47.25c30.87 0 55.91-25.03 55.91-55.91v-55.89c0-7.76-1.17-15.47-3.48-22.88-2.19-7.07-3.36-14.41-3.46-21.81l-1.75-125.93c-0.15-11.35 0.57-22.69 2.18-33.92z"/>
				<path class="s2" d="m155.55 43.85c-6.22-9.12 20.72-26.93 28.66-20.71 7.94 6.21-23.48 28.31-28.66 20.71z"/>
				<path class="s3" d="m146.46 148.83c0 0-12.51 8.63-14.58 12.77-2.08 4.15 0 7.94 1.38 7.6 1.38-0.35 17.61-7.25 17.61-7.25z"/>
				<path class="s4" d="m166.06 273.28c0.12-22.23-0.2-41.37-0.84-55.05-2.07-43.85-10.01-78.73-10.01-78.73-2.62 52.03-3.83 94.27-4.15 128.44 4.93 2.25 9.95 3.3 15 5.34z"/>
				<path class="s4" d="m151.02 272.01c-0.8 105.44 6.95 131.65 6.95 131.65 5.4-21.14 7.76-77.97 8.07-126.63-4.94-1.55-9.95-3.92-15.02-5.02z"/>
				<path class="s4" d="m333.72 273.28c-0.12-22.23 0.19-41.37 0.84-55.05 2.07-43.85 10.01-78.73 10.01-78.73 2.62 52.03 3.83 94.27 4.15 128.44-4.93 2.25-9.95 3.3-15 5.34z"/>
				<path class="s4" d="m348.75 272.01c0.8 105.44-6.94 131.65-6.94 131.65-5.4-21.14-7.77-77.97-8.08-126.63 4.95-1.55 9.95-3.92 15.02-5.02z"/>
				<path class="s5" d="m184.46 485.78c-1.39 2.93-8.34 2.54-15.53-0.87-7.18-3.4-11.88-8.54-10.49-11.47 1.39-2.93 8.34-2.54 15.53 0.86 7.18 3.41 11.88 8.55 10.49 11.48z"/>
				<path class="s2" d="m344.23 43.85c6.21-9.12-20.72-26.93-28.67-20.71-7.94 6.21 23.49 28.31 28.67 20.71z"/>
				<path class="s3" d="m353.31 148.83c0 0 12.52 8.63 14.59 12.77 2.07 4.15 0 7.94-1.38 7.6-1.38-0.35-17.61-7.25-17.61-7.25z"/>
				<path class="s5" d="m315.31 485.78c1.39 2.93 8.34 2.54 15.53-0.87 7.18-3.4 11.88-8.54 10.49-11.47-1.39-2.93-8.34-2.54-15.52 0.86-7.19 3.41-11.89 8.55-10.5 11.48z"/>
				<path class="s4" d="m249.89 381.22c50.83 0 73.62-10.02 73.62-10.02v76.31c0 0-18.79 21.07-73.62 21.07-54.83 0-73.62-21.07-73.62-21.07v-76.31c0 0 22.79 10.02 73.62 10.02zm0-297.66c-70.62 0-88.47 38.68-88.47 38.68l9.45 75.96c0 0 40.32-8.63 79.02-8.63 38.69 0 79.02 8.63 79.02 8.63l9.44-75.96c0 0-17.84-38.68-88.46-38.68z"/>
			</g>
		</g>
	</g>
</svg>