<svg version="1.2" xmlns="http://www.w3.org/2000/svg" viewBox="0 0 500 500" width="520" height="520">
	<style>
		.s0 { fill: #e13e26 } 
		.s1 { fill: #ff6148 } 
		.s2 { fill: #45474a } 
		.s3 { fill: #e9e8d8 } 
	</style>
	<g id="OBJECTS">
		<g>
			<g>
				<path class="s0" d="m148.54 164.08q0.12-5.71-0.4-11.41l-4.15-44.84c-2.7-29.16 7.22-66.57 27.93-87.28 17.79-17.79 45.48-20.55 72.63-20.55h11.75c27.16 0 54.84 2.76 72.64 20.55 20.71 20.71 30.63 58.12 27.93 87.28l-4.15 44.84q-0.53 5.7-0.41 11.41l5.43 213.16c0 32.58-26.41 122.76-59 122.76h-96.63c-32.59 0-59-90.18-59-122.76z"/>
				<path class="s1" d="m336.71 181.05c-0.08-3.63 10.88-20.21 11.22-23.82l3.96-42.75c2.57-27.79-6.89-63.46-26.62-83.19-16.97-16.97-43.36-19.59-69.24-19.59h-11.2c-25.89 0-52.28 2.62-69.24 19.59-19.74 19.74-29.2 55.4-26.63 83.19l3.96 42.75c0.34 3.61 11.3 20.19 11.22 23.82v198.25c0 31.06 9.17 109 40.23 109h92.11c31.06 0 40.23-77.94 40.23-109z"/>
				<g>
					<path class="s0" d="m155.54 173.32v9.97l-22.35 5.5c0 0-3.78-15.47 22.35-15.47z"/>
					<path class="s2" d="m161.05 278.3q0 0.94-0.01 1.88c0 49.6 3.1 99.12 3.1 99.12 0 0 12.38-36.11 12.38-49.52v-48.57c-5.12-1.21-10.29-2.21-15.47-2.91z"/>
					<path class="s2" d="m176.52 275.48v-45.25c0-7.74-12.38-49.17-12.38-49.17 0 0-2.72 43.52-3.06 89.84 5.22 1.27 10.35 2.86 15.44 4.58z"/>
					<path class="s2" d="m339.8 278.3q0 0.94 0.01 1.88c0 49.6-3.1 99.12-3.1 99.12 0 0-12.38-36.11-12.38-49.52v-48.57c5.12-1.21 10.29-2.21 15.47-2.91z"/>
					<path class="s2" d="m324.33 275.48v-45.25c0-7.74 12.38-49.17 12.38-49.17 0 0 2.72 43.52 3.06 89.84-5.22 1.27-10.35 2.86-15.44 4.58z"/>
					<path class="s0" d="m345.31 173.32v9.97l22.35 5.5c0 0 3.78-15.47-22.35-15.47z"/>
					<path class="s2" d="m182.19 216.82l-18.57-71.7c0 0 19.6-27.34 86.81-27.34 67.2 0 86.8 27.34 86.8 27.34l-18.57 71.7c0 0-37.43-8.77-68.23-8.77-30.81 0-68.24 8.77-68.24 8.77zm130.65 158.73c-11.25 2.6-39.97 7.88-62.41 7.88-22.45 0-51.17-5.28-62.42-7.88-3.02-0.7-5.92 1.53-6.03 4.63l-2.27 65.39c-0.06 1.8 0.86 3.5 2.41 4.41 26.24 15.55 68.31 13.4 68.31 13.4 0 0 42.06 2.15 68.3-13.4 1.55-0.91 2.47-2.61 2.41-4.41l-2.27-65.39c-0.11-3.1-3.01-5.33-6.03-4.63z"/>
					<path class="s3" d="m163.62 37.61c15.37-3.83 25.32-21.35 24.7-25.91-4.44 2.43-8.54 5.41-12.2 9.07-4.78 4.79-8.96 10.52-12.5 16.84z"/>
					<path class="s3" d="m337.23 37.61c-15.38-3.83-25.32-21.35-24.7-25.91 4.44 2.43 8.54 5.41 12.2 9.07 4.78 4.79 8.96 10.52 12.5 16.84z"/>
				</g>
			</g>
		</g>
	</g>
</svg>