<svg version="1.2" xmlns="http://www.w3.org/2000/svg" viewBox="0 0 500 500" width="520" height="520">
	<style>
		.s0 { fill: #ffa400 } 
		.s1 { fill: #ffe04a } 
		.s2 { fill: #e9e8d8 } 
		.s3 { fill: #45474a } 
	</style>
	<g id="OBJECTS">
		<g>
			<g>
				<path class="s0" d="m352.48 44.55c-1.89-15.89-12.98-29.21-28.3-33.84-17.36-5.25-42.97-10.71-74.3-10.71-31.34 0-56.95 5.46-74.31 10.71-15.32 4.63-26.41 17.95-28.3 33.84-3.79 31.97-9.54 93.43-9.54 172.43 0 89.59 9.72 200.19 14.4 248.16 1.43 14.73 12.56 26.69 27.16 29.09 17.06 2.82 41.82 5.77 70.58 5.77 28.77 0 53.53-2.95 70.59-5.77 14.6-2.4 25.73-14.36 27.16-29.09 4.67-47.97 14.4-158.57 14.4-248.16 0-79-5.75-140.46-9.54-172.43z"/>
				<path class="s1" d="m349.15 51.22c-1.82-15.38-12.55-28.27-27.38-32.75-16.8-5.07-41.58-10.36-71.89-10.36-30.32 0-55.1 5.28-71.9 10.36-14.83 4.48-25.56 17.37-27.38 32.75-3.67 30.92 15.43 75.84 15.43 152.29 0 86.69 3.57 157.58 8.09 203.99 1.39 14.25-6.67 76.49 7.46 78.82 16.51 2.72 40.46 5.58 68.3 5.58 27.83 0 51.78-2.86 68.29-5.58 14.13-2.33 6.07-64.57 7.46-78.82 4.52-46.42 8.09-117.31 8.09-203.99 0-76.45 19.1-121.37 15.43-152.29z"/>
				<path class="s0" d="m142.45 160.38c0 0-15.73 0.43-22.73 9.71-1.85 2.44 0.11 5.91 3.15 5.55l19.58-2.32z"/>
				<path class="s2" d="m206.73 6.55c-12.16 2.01-22.66 4.63-31.16 7.2-6.28 1.89-11.83 5.27-16.35 9.67 0.3 1.11 1.08 2.16 2.16 2.57 2.36 0.87 4.94-0.22 7.2-1.29q18.01-8.5 36.01-17c0.71-0.33 1.46-0.71 2.14-1.15z"/>
				<path class="s0" d="m357.3 160.38c0 0 15.73 0.43 22.74 9.71 1.85 2.44-0.11 5.91-3.15 5.55l-19.58-2.32c0 0 0-12.94-0.01-12.94z"/>
				<path class="s2" d="m293.02 6.55c12.16 2.01 22.66 4.63 31.16 7.2 6.28 1.89 11.84 5.27 16.35 9.67-0.3 1.11-1.08 2.16-2.16 2.57-2.35 0.87-4.94-0.22-7.2-1.29q-18-8.5-36.01-17c-0.71-0.33-1.45-0.71-2.14-1.15z"/>
				<g>
					<g>
						<g>
							<path class="s3" d="m174.12 407.5v72.39c0 5.88 4.28 10.86 10.09 11.79 23.16 3.7 65.66 4.28 65.66 4.28 0 0 42.5-0.58 65.67-4.28 5.81-0.93 10.09-5.91 10.09-11.79v-72.39z"/>
						</g>
						<g>
							<path class="s3" d="m249.88 58.63c-60.26 0-94.63 37.06-94.63 37.06l10.78 107.82c0 0 36.28-20.05 83.85-20.05 47.56 0 83.84 20.05 83.84 20.05l10.78-107.82c0 0-34.37-37.06-94.62-37.06z"/>
						</g>
					</g>
				</g>
				<path class="s3" d="m160.11 389.55c-0.2-26.05-0.45-55.7-0.74-83.31-5.49-2.76-11.11-5.3-16.71-7.87 0.75 33.26 3.45 64.76 6.55 91.19 0 0 10.9 0 10.9-0.01z"/>
				<path class="s3" d="m150.14 397.3c4.96 39.97 10.5 66.5 10.5 66.5 0 0-0.18-28.79-0.47-66.99q-5.01 0.33-10.03 0.49z"/>
				<path class="s3" d="m159.26 295.31c-0.4-37.55-0.86-69.65-1.31-81.02-1.35-33.7-10.78-92.99-10.78-92.99 0 0-4.72 62.62-4.72 159.03q0 0.2 0 0.4c5.39 5.1 11.01 9.95 16.81 14.58z"/>
				<path class="s3" d="m339.64 389.55c0.2-26.05 0.46-55.7 0.74-83.31 5.5-2.76 11.11-5.3 16.71-7.87-0.75 33.26-3.45 64.76-6.54 91.19 0 0-10.91 0-10.91-0.01z"/>
				<path class="s3" d="m349.61 397.3c-4.96 39.97-10.5 66.5-10.5 66.5 0 0 0.18-28.79 0.47-66.99q5.01 0.33 10.03 0.49z"/>
				<path class="s3" d="m340.49 295.31c0.4-37.55 0.86-69.65 1.32-81.02 1.34-33.7 10.78-92.99 10.78-92.99 0 0 4.71 62.62 4.71 159.03q0 0.2 0 0.4c-5.38 5.1-11.01 9.95-16.81 14.58z"/>
			</g>
		</g>
	</g>
</svg>